{"glyphs":{"0":{"ha":1010,"x_min":0,"x_max":0,"o":"m 506 -21 b 961 486 808 -21 961 200 b 506 993 961 772 808 993 b 50 486 201 993 50 772 b 506 -21 50 200 201 -21 z m 506 188 b 281 486 354 188 281 308 b 506 785 281 664 354 785 b 731 486 656 785 731 664 b 506 188 731 308 656 188 z "},"1":{"ha":501,"x_min":0,"x_max":0,"o":"m 418 972 l 54 972 l 42 767 l 192 767 l 192 0 l 418 0 z "},"2":{"ha":913,"x_min":0,"x_max":0,"o":"m 72 0 l 839 0 l 839 201 l 414 201 l 489 251 l 660 374 b 849 671 810 481 849 561 b 458 993 849 860 733 993 b 64 606 190 993 53 868 l 289 606 b 458 789 281 743 358 789 b 619 653 561 789 619 742 b 481 481 619 588 583 553 l 72 199 z "},"3":{"ha":897,"x_min":0,"x_max":0,"o":"m 446 -21 b 847 306 733 -21 847 133 b 597 601 847 442 774 568 l 792 772 l 792 972 l 96 972 l 96 767 l 544 767 l 340 599 l 340 439 b 447 454 376 450 415 454 b 618 321 563 454 618 397 b 453 186 618 236 558 186 b 278 339 349 186 269 232 l 50 339 b 446 -21 39 107 182 -21 z "},"4":{"ha":935,"x_min":0,"x_max":0,"o":"m 850 972 l 546 972 l 42 340 l 42 140 l 624 140 l 624 0 l 850 0 z m 282 340 l 624 769 l 624 340 z "},"5":{"ha":889,"x_min":0,"x_max":0,"o":"m 440 -21 b 840 322 724 -21 840 132 b 482 667 840 471 772 667 b 300 629 406 667 333 654 l 300 775 l 781 775 l 781 972 l 74 972 l 74 429 l 290 429 b 442 489 307 456 354 489 b 611 336 565 489 611 422 b 443 185 611 236 550 185 b 276 339 339 185 268 232 l 50 339 b 440 -21 39 100 178 -21 z "},"6":{"ha":886,"x_min":0,"x_max":0,"o":"m 476 678 l 472 678 l 740 972 l 474 972 l 175 635 b 50 339 82 531 50 438 b 443 -21 50 132 188 -21 b 836 338 697 -21 836 132 b 476 678 836 531 711 678 z m 443 186 b 278 338 336 186 278 246 b 443 489 278 428 336 489 b 608 338 550 489 608 428 b 443 186 608 246 550 186 z "},"7":{"ha":915,"x_min":0,"x_max":0,"o":"m 893 972 l 42 972 l 42 771 l 549 771 l 110 0 l 349 0 z "},"8":{"ha":940,"x_min":0,"x_max":0,"o":"m 471 -21 b 871 275 750 -21 871 107 b 710 518 871 396 810 476 b 825 725 785 568 825 633 b 471 993 825 874 715 993 b 117 725 225 993 117 874 b 231 518 117 633 156 568 b 71 275 131 476 71 394 b 471 -21 71 107 190 -21 z m 471 588 b 329 700 378 588 329 629 b 471 814 329 771 378 814 b 611 700 563 814 611 771 b 471 588 611 629 563 588 z m 471 175 b 303 308 363 175 303 224 b 471 439 303 394 365 439 b 639 308 575 439 639 394 b 471 175 639 224 578 175 z "},"9":{"ha":886,"x_min":0,"x_max":0,"o":"m 443 993 b 50 635 188 993 50 840 b 408 294 50 442 175 294 l 414 294 l 146 0 l 411 0 l 710 338 b 836 633 803 442 836 535 b 443 993 836 840 697 993 z m 443 483 b 278 635 336 483 278 544 b 443 786 278 726 336 786 b 608 635 550 786 608 726 b 443 483 608 544 550 483 z "}," ":{"ha":264,"x_min":0,"x_max":0,"o":""},"A":{"ha":1129,"x_min":0,"x_max":0,"o":"m 868 0 l 1108 0 l 689 972 l 440 972 l 22 0 l 263 0 l 317 128 l 814 128 z m 393 311 l 565 717 l 736 311 z "},"Á":{"ha":1129,"x_min":0,"x_max":0,"o":"m 801 1294 l 590 1294 l 475 1065 l 686 1065 z m 868 0 l 1108 0 l 689 972 l 440 972 l 22 0 l 263 0 l 317 128 l 814 128 z m 393 311 l 565 717 l 736 311 z "},"Ă":{"ha":1129,"x_min":0,"x_max":0,"o":"m 565 1028 b 847 1294 769 1028 856 1128 l 653 1294 b 565 1189 661 1222 625 1189 b 478 1294 504 1189 469 1222 l 282 1294 b 565 1028 274 1128 361 1028 z m 868 0 l 1108 0 l 689 972 l 440 972 l 22 0 l 263 0 l 317 128 l 814 128 z m 393 311 l 565 717 l 736 311 z "},"Ǎ":{"ha":1129,"x_min":0,"x_max":0,"o":"m 406 1065 l 726 1065 l 842 1294 l 635 1294 l 567 1158 l 497 1294 l 290 1294 z m 868 0 l 1108 0 l 689 972 l 440 972 l 22 0 l 263 0 l 317 128 l 814 128 z m 393 311 l 565 717 l 736 311 z "},"Â":{"ha":1129,"x_min":0,"x_max":0,"o":"m 567 1200 l 635 1064 l 842 1064 l 726 1293 l 406 1293 l 290 1064 l 497 1064 z m 868 0 l 1108 0 l 689 972 l 440 972 l 22 0 l 263 0 l 317 128 l 814 128 z m 393 311 l 565 717 l 736 311 z "},"Ä":{"ha":1129,"x_min":0,"x_max":0,"o":"m 364 1078 b 483 1189 439 1078 483 1129 b 364 1299 483 1249 439 1299 b 244 1189 289 1299 244 1249 b 364 1078 244 1129 289 1078 z m 768 1078 b 888 1189 843 1078 888 1129 b 768 1299 888 1249 843 1299 b 649 1189 693 1299 649 1249 b 768 1078 649 1129 693 1078 z m 868 0 l 1108 0 l 689 972 l 440 972 l 22 0 l 263 0 l 317 128 l 814 128 z m 393 311 l 565 717 l 736 311 z "},"À":{"ha":1129,"x_min":0,"x_max":0,"o":"m 672 1065 l 557 1294 l 346 1294 l 461 1065 z m 868 0 l 1108 0 l 689 972 l 440 972 l 22 0 l 263 0 l 317 128 l 814 128 z m 393 311 l 565 717 l 736 311 z "},"Ā":{"ha":1129,"x_min":0,"x_max":0,"o":"m 843 1294 l 286 1294 l 286 1097 l 843 1097 z m 868 0 l 1108 0 l 689 972 l 440 972 l 22 0 l 263 0 l 317 128 l 814 128 z m 393 311 l 565 717 l 736 311 z "},"Ą":{"ha":1129,"x_min":0,"x_max":0,"o":"m 1060 0 l 1108 0 l 689 972 l 440 972 l 22 0 l 263 0 l 317 128 l 814 128 l 868 0 b 717 -192 792 -33 717 -90 b 913 -350 717 -285 778 -350 b 1007 -335 954 -350 982 -344 l 1007 -183 l 986 -185 b 899 -121 932 -187 899 -164 b 1060 0 899 -75 935 -24 z m 393 311 l 565 717 l 736 311 z "},"Å":{"ha":1129,"x_min":0,"x_max":0,"o":"m 565 1035 b 711 1176 657 1035 711 1099 b 565 1317 711 1253 657 1317 b 421 1176 475 1317 421 1253 b 565 1035 421 1099 475 1035 z m 565 1218 b 610 1176 594 1218 610 1200 b 565 1133 610 1151 594 1133 b 522 1176 538 1133 522 1151 b 565 1218 522 1200 538 1218 z m 868 0 l 1108 0 l 689 972 l 440 972 l 22 0 l 263 0 l 317 128 l 814 128 z m 393 311 l 565 717 l 736 311 z "},"Ã":{"ha":1129,"x_min":0,"x_max":0,"o":"m 703 1131 b 865 1082 750 1131 811 1119 l 865 1251 b 708 1299 817 1285 765 1299 b 426 1236 585 1299 544 1236 b 264 1285 378 1236 318 1247 l 264 1114 b 421 1068 313 1082 364 1068 b 703 1131 544 1068 588 1131 z m 868 0 l 1108 0 l 689 972 l 440 972 l 22 0 l 263 0 l 317 128 l 814 128 z m 393 311 l 565 717 l 736 311 z "},"Æ":{"ha":1668,"x_min":0,"x_max":0,"o":"m 1599 769 l 1599 972 l 632 972 l 8 0 l 254 0 l 350 150 l 767 150 l 767 0 l 1599 0 l 1599 203 l 997 203 l 997 392 l 1578 392 l 1578 572 l 997 572 l 997 769 z m 469 339 l 767 804 l 767 339 z "},"B":{"ha":1047,"x_min":0,"x_max":0,"o":"m 824 493 b 960 710 925 538 960 618 b 626 972 960 851 876 972 l 85 972 l 85 0 l 654 0 b 992 261 907 0 992 117 b 824 493 992 360 951 446 z m 607 774 b 729 678 693 774 729 742 b 607 582 729 614 693 582 l 315 582 l 315 774 z m 625 199 l 315 199 l 315 403 l 625 404 b 761 301 722 404 761 371 b 625 199 761 232 722 199 z "},"C":{"ha":1118,"x_min":0,"x_max":0,"o":"m 575 189 b 283 486 385 189 283 314 b 575 783 283 658 385 783 b 838 607 701 783 793 738 l 1063 607 b 575 993 1022 851 844 993 b 50 486 243 993 50 769 b 575 -21 50 203 243 -21 b 1063 365 844 -21 1022 121 l 838 365 b 575 189 793 235 701 189 z "},"Ć":{"ha":1118,"x_min":0,"x_max":0,"o":"m 476 1065 l 688 1065 l 803 1294 l 592 1294 z m 575 189 b 283 486 385 189 283 314 b 575 783 283 658 385 783 b 838 607 701 783 793 738 l 1063 607 b 575 993 1022 851 844 993 b 50 486 243 993 50 769 b 575 -21 50 203 243 -21 b 1063 365 844 -21 1022 121 l 838 365 b 575 189 793 235 701 189 z "},"Č":{"ha":1118,"x_min":0,"x_max":0,"o":"m 407 1065 l 728 1065 l 843 1294 l 636 1294 l 568 1158 l 499 1294 l 292 1294 z m 575 189 b 283 486 385 189 283 314 b 575 783 283 658 385 783 b 838 607 701 783 793 738 l 1063 607 b 575 993 1022 851 844 993 b 50 486 243 993 50 769 b 575 -21 50 203 243 -21 b 1063 365 844 -21 1022 121 l 838 365 b 575 189 793 235 701 189 z "},"Ç":{"ha":1118,"x_min":0,"x_max":0,"o":"m 575 189 b 283 486 385 189 283 314 b 575 783 283 658 385 783 b 838 607 701 783 793 738 l 1063 607 b 575 993 1022 851 844 993 b 50 486 243 993 50 769 b 513 -18 50 221 219 8 l 440 -153 l 574 -153 b 617 -192 600 -153 617 -168 b 574 -235 617 -217 601 -235 b 535 -221 557 -235 546 -231 l 474 -299 b 588 -342 497 -325 538 -342 b 740 -194 681 -342 740 -283 b 604 -54 740 -110 683 -54 l 597 -54 l 618 -19 b 1063 365 863 -6 1025 133 l 838 365 b 575 189 793 235 701 189 z "},"Ċ":{"ha":1118,"x_min":0,"x_max":0,"o":"m 567 1078 b 686 1189 642 1078 686 1129 b 567 1299 686 1249 642 1299 b 447 1189 492 1299 447 1249 b 567 1078 447 1129 492 1078 z m 575 189 b 283 486 385 189 283 314 b 575 783 283 658 385 783 b 838 607 701 783 793 738 l 1063 607 b 575 993 1022 851 844 993 b 50 486 243 993 50 769 b 575 -21 50 203 243 -21 b 1063 365 844 -21 1022 121 l 838 365 b 575 189 793 235 701 189 z "},"D":{"ha":1111,"x_min":0,"x_max":0,"o":"m 85 0 l 553 0 b 1054 486 863 0 1054 193 b 553 972 1054 779 863 972 l 85 972 z m 315 204 l 315 768 l 549 768 b 821 486 731 768 821 658 b 549 204 821 314 731 204 z "},"Ð":{"ha":1097,"x_min":0,"x_max":0,"o":"m 553 972 l 85 972 l 85 585 l 0 585 l 0 389 l 85 389 l 85 0 l 553 0 b 1054 486 863 0 1054 193 b 553 972 1054 779 863 972 z m 549 204 l 315 204 l 315 389 l 501 389 l 501 585 l 315 585 l 315 768 l 549 768 b 821 486 731 768 821 658 b 549 204 821 314 731 204 z "},"Ď":{"ha":1111,"x_min":0,"x_max":0,"o":"m 389 1065 l 710 1065 l 825 1294 l 618 1294 l 550 1158 l 481 1294 l 274 1294 z m 553 972 l 85 972 l 85 0 l 553 0 b 1054 486 863 0 1054 193 b 553 972 1054 779 863 972 z m 549 204 l 315 204 l 315 768 l 549 768 b 821 486 731 768 821 658 b 549 204 821 314 731 204 z "},"Đ":{"ha":1097,"x_min":0,"x_max":0,"o":"m 553 972 l 85 972 l 85 585 l 0 585 l 0 389 l 85 389 l 85 0 l 553 0 b 1054 486 863 0 1054 193 b 553 972 1054 779 863 972 z m 549 204 l 315 204 l 315 389 l 501 389 l 501 585 l 315 585 l 315 768 l 549 768 b 821 486 731 768 821 658 b 549 204 821 314 731 204 z "},"E":{"ha":985,"x_min":0,"x_max":0,"o":"m 917 769 l 917 972 l 85 972 l 85 0 l 917 0 l 917 203 l 315 203 l 315 392 l 894 392 l 894 572 l 315 572 l 315 769 z "},"É":{"ha":985,"x_min":0,"x_max":0,"o":"m 739 1294 l 528 1294 l 413 1065 l 624 1065 z m 917 769 l 917 972 l 85 972 l 85 0 l 917 0 l 917 203 l 315 203 l 315 392 l 894 392 l 894 572 l 315 572 l 315 769 z "},"Ě":{"ha":985,"x_min":0,"x_max":0,"o":"m 343 1065 l 664 1065 l 779 1294 l 572 1294 l 504 1158 l 435 1294 l 228 1294 z m 917 769 l 917 972 l 85 972 l 85 0 l 917 0 l 917 203 l 315 203 l 315 392 l 894 392 l 894 572 l 315 572 l 315 769 z "},"Ê":{"ha":985,"x_min":0,"x_max":0,"o":"m 504 1200 l 572 1064 l 779 1064 l 664 1293 l 343 1293 l 228 1064 l 435 1064 z m 917 769 l 917 972 l 85 972 l 85 0 l 917 0 l 917 203 l 315 203 l 315 392 l 894 392 l 894 572 l 315 572 l 315 769 z "},"Ë":{"ha":985,"x_min":0,"x_max":0,"o":"m 301 1078 b 421 1189 376 1078 421 1129 b 301 1299 421 1249 376 1299 b 182 1189 226 1299 182 1249 b 301 1078 182 1129 226 1078 z m 706 1078 b 825 1189 781 1078 825 1129 b 706 1299 825 1249 781 1299 b 586 1189 631 1299 586 1249 b 706 1078 586 1129 631 1078 z m 917 769 l 917 972 l 85 972 l 85 0 l 917 0 l 917 203 l 315 203 l 315 392 l 894 392 l 894 572 l 315 572 l 315 769 z "},"Ė":{"ha":985,"x_min":0,"x_max":0,"o":"m 503 1078 b 622 1189 578 1078 622 1129 b 503 1299 622 1249 578 1299 b 383 1189 428 1299 383 1249 b 503 1078 383 1129 428 1078 z m 917 769 l 917 972 l 85 972 l 85 0 l 917 0 l 917 203 l 315 203 l 315 392 l 894 392 l 894 572 l 315 572 l 315 769 z "},"È":{"ha":985,"x_min":0,"x_max":0,"o":"m 610 1065 l 494 1294 l 283 1294 l 399 1065 z m 917 769 l 917 972 l 85 972 l 85 0 l 917 0 l 917 203 l 315 203 l 315 392 l 894 392 l 894 572 l 315 572 l 315 769 z "},"Ē":{"ha":985,"x_min":0,"x_max":0,"o":"m 782 1294 l 225 1294 l 225 1097 l 782 1097 z m 917 769 l 917 972 l 85 972 l 85 0 l 917 0 l 917 203 l 315 203 l 315 392 l 894 392 l 894 572 l 315 572 l 315 769 z "},"Ę":{"ha":985,"x_min":0,"x_max":0,"o":"m 917 769 l 917 972 l 85 972 l 85 0 l 721 0 b 571 -192 646 -33 571 -90 b 767 -350 571 -285 632 -350 b 861 -335 808 -350 836 -344 l 861 -183 l 840 -185 b 753 -121 786 -187 753 -164 b 914 0 753 -75 789 -24 l 917 0 l 917 203 l 315 203 l 315 392 l 894 392 l 894 572 l 315 572 l 315 769 z "},"F":{"ha":985,"x_min":0,"x_max":0,"o":"m 917 768 l 917 972 l 85 972 l 85 0 l 315 0 l 315 336 l 890 336 l 890 539 l 315 539 l 315 768 z "},"G":{"ha":1121,"x_min":0,"x_max":0,"o":"m 572 357 l 815 357 l 815 235 b 608 179 756 193 681 179 b 283 482 381 179 283 311 b 581 783 283 658 388 783 b 810 635 697 783 778 739 l 1036 635 b 574 993 1001 851 838 993 b 50 485 246 993 50 769 b 589 -21 50 200 240 -21 b 1036 158 749 -21 915 24 l 1036 532 l 572 532 z "},"Ğ":{"ha":1121,"x_min":0,"x_max":0,"o":"m 554 1028 b 836 1294 758 1028 844 1128 l 642 1294 b 554 1189 650 1222 614 1189 b 467 1294 493 1189 458 1222 l 271 1294 b 554 1028 263 1128 350 1028 z m 572 357 l 815 357 l 815 235 b 608 179 756 193 681 179 b 283 482 381 179 283 311 b 581 783 283 658 388 783 b 810 635 697 783 778 739 l 1036 635 b 574 993 1001 851 838 993 b 50 485 246 993 50 769 b 589 -21 50 200 240 -21 b 1036 158 749 -21 915 24 l 1036 532 l 572 532 z "},"Ģ":{"ha":1121,"x_min":0,"x_max":0,"o":"m 572 357 l 815 357 l 815 235 b 608 179 756 193 681 179 b 283 482 381 179 283 311 b 581 783 283 658 388 783 b 810 635 697 783 778 739 l 1036 635 b 574 993 1001 851 838 993 b 50 485 246 993 50 769 b 589 -21 50 200 240 -21 b 1036 158 749 -21 915 24 l 1036 532 l 572 532 z m 369 -450 l 575 -450 l 710 -83 l 504 -83 z "},"Ġ":{"ha":1121,"x_min":0,"x_max":0,"o":"m 553 1078 b 672 1189 628 1078 672 1129 b 553 1299 672 1249 628 1299 b 433 1189 478 1299 433 1249 b 553 1078 433 1129 478 1078 z m 572 357 l 815 357 l 815 235 b 608 179 756 193 681 179 b 283 482 381 179 283 311 b 581 783 283 658 388 783 b 810 635 697 783 778 739 l 1036 635 b 574 993 1001 851 838 993 b 50 485 246 993 50 769 b 589 -21 50 200 240 -21 b 1036 158 749 -21 915 24 l 1036 532 l 572 532 z "},"H":{"ha":1132,"x_min":0,"x_max":0,"o":"m 817 972 l 817 556 l 315 556 l 315 972 l 85 972 l 85 0 l 315 0 l 315 361 l 817 361 l 817 0 l 1047 0 l 1047 972 z "},"Ħ":{"ha":1132,"x_min":0,"x_max":0,"o":"m 817 972 l 817 844 l 315 844 l 315 972 l 85 972 l 85 0 l 315 0 l 315 361 l 817 361 l 817 0 l 1047 0 l 1047 972 z m 315 556 l 315 650 l 817 650 l 817 556 z "},"I":{"ha":399,"x_min":0,"x_max":0,"o":"m 85 0 l 315 0 l 315 972 l 85 972 z "},"Ĳ":{"ha":1440,"x_min":0,"x_max":0,"o":"m 85 0 l 315 0 l 315 972 l 85 972 z m 901 -21 b 1356 413 1219 -21 1356 132 l 1356 972 l 1125 972 l 1125 413 b 901 189 1125 253 1063 189 b 679 411 742 189 679 253 l 449 411 b 901 -21 449 132 585 -21 z "},"Í":{"ha":399,"x_min":0,"x_max":0,"o":"m 110 1065 l 321 1065 l 436 1294 l 225 1294 z m 85 0 l 315 0 l 315 972 l 85 972 z "},"Ǐ":{"ha":399,"x_min":0,"x_max":0,"o":"m 268 1294 l 200 1158 l 131 1294 l -76 1294 l 39 1065 l 360 1065 l 475 1294 z m 85 0 l 315 0 l 315 972 l 85 972 z "},"Î":{"ha":399,"x_min":0,"x_max":0,"o":"m 200 1200 l 268 1064 l 475 1064 l 360 1293 l 39 1293 l -76 1064 l 131 1064 z m 85 0 l 315 0 l 315 972 l 85 972 z "},"Ï":{"ha":399,"x_min":0,"x_max":0,"o":"m -3 1078 b 117 1189 72 1078 117 1129 b -3 1299 117 1249 72 1299 b -122 1189 -78 1299 -122 1249 b -3 1078 -122 1129 -78 1078 z m 401 1078 b 521 1189 476 1078 521 1129 b 401 1299 521 1249 476 1299 b 282 1189 326 1299 282 1249 b 401 1078 282 1129 326 1078 z m 85 0 l 315 0 l 315 972 l 85 972 z "},"İ":{"ha":399,"x_min":0,"x_max":0,"o":"m 200 1078 b 319 1189 275 1078 319 1129 b 200 1299 319 1249 275 1299 b 81 1189 125 1299 81 1249 b 200 1078 81 1129 125 1078 z m 85 0 l 315 0 l 315 972 l 85 972 z "},"Ì":{"ha":399,"x_min":0,"x_max":0,"o":"m 306 1065 l 190 1294 l -21 1294 l 94 1065 z m 85 0 l 315 0 l 315 972 l 85 972 z "},"Ī":{"ha":399,"x_min":0,"x_max":0,"o":"m -79 1097 l 478 1097 l 478 1294 l -79 1294 z m 85 0 l 315 0 l 315 972 l 85 972 z "},"Į":{"ha":399,"x_min":0,"x_max":0,"o":"m 85 972 l 85 4 b -74 -192 7 -29 -74 -87 b 122 -350 -74 -285 -12 -350 b 217 -335 164 -350 192 -344 l 217 -183 l 196 -185 b 108 -121 142 -187 108 -164 b 269 0 108 -75 144 -24 l 315 0 l 315 972 z "},"J":{"ha":1042,"x_min":0,"x_max":0,"o":"m 503 -21 b 957 413 821 -21 957 132 l 957 972 l 726 972 l 726 413 b 503 189 726 253 664 189 b 281 411 343 189 281 253 l 50 411 b 503 -21 50 132 186 -21 z "},"K":{"ha":1135,"x_min":0,"x_max":0,"o":"m 1113 0 l 711 503 l 1085 972 l 819 972 l 311 313 l 311 972 l 85 972 l 85 0 l 311 0 l 578 336 l 843 0 z "},"Ķ":{"ha":1135,"x_min":0,"x_max":0,"o":"m 711 503 l 1085 972 l 819 972 l 311 313 l 311 972 l 85 972 l 85 0 l 311 0 l 578 336 l 843 0 l 1113 0 z m 315 -410 l 521 -410 l 656 -42 l 450 -42 z "},"L":{"ha":958,"x_min":0,"x_max":0,"o":"m 315 204 l 315 972 l 85 972 l 85 0 l 908 0 l 908 204 z "},"Ĺ":{"ha":958,"x_min":0,"x_max":0,"o":"m 424 1294 l 213 1294 l 97 1065 l 308 1065 z m 315 204 l 315 972 l 85 972 l 85 0 l 908 0 l 908 204 z "},"Ľ":{"ha":958,"x_min":0,"x_max":0,"o":"m 525 746 l 524 632 b 667 842 607 675 667 756 l 667 853 b 538 983 667 922 618 983 b 413 864 463 983 413 931 b 525 746 413 801 456 751 z m 315 204 l 315 972 l 85 972 l 85 0 l 908 0 l 908 204 z "},"Ļ":{"ha":958,"x_min":0,"x_max":0,"o":"m 315 204 l 315 972 l 85 972 l 85 0 l 908 0 l 908 204 z m 263 -410 l 468 -410 l 603 -42 l 397 -42 z "},"Ł":{"ha":958,"x_min":0,"x_max":0,"o":"m 315 204 l 315 479 l 550 503 l 550 678 l 315 654 l 315 972 l 85 972 l 85 632 l -7 622 l -7 447 l 85 457 l 85 0 l 908 0 l 908 204 z "},"M":{"ha":1418,"x_min":0,"x_max":0,"o":"m 85 0 l 314 0 l 314 733 l 331 733 l 575 1 l 844 1 l 1089 733 l 1106 733 l 1106 0 l 1335 0 l 1335 972 l 958 972 l 717 226 l 701 226 l 460 972 l 85 972 z "},"N":{"ha":1131,"x_min":0,"x_max":0,"o":"m 85 0 l 315 0 l 315 582 l 314 706 l 328 706 l 747 0 l 1046 0 l 1046 972 l 815 972 l 815 390 l 817 267 l 803 267 l 383 972 l 85 972 z "},"Ń":{"ha":1131,"x_min":0,"x_max":0,"o":"m 475 1065 l 686 1065 l 801 1294 l 590 1294 z m 85 0 l 315 0 l 315 582 l 314 706 l 328 706 l 747 0 l 1046 0 l 1046 972 l 815 972 l 815 390 l 817 267 l 803 267 l 383 972 l 85 972 z "},"Ň":{"ha":1131,"x_min":0,"x_max":0,"o":"m 406 1065 l 726 1065 l 842 1294 l 635 1294 l 567 1158 l 497 1294 l 290 1294 z m 815 972 l 815 390 l 817 267 l 803 267 l 383 972 l 85 972 l 85 0 l 315 0 l 315 582 l 314 706 l 328 706 l 747 0 l 1046 0 l 1046 972 z "},"Ņ":{"ha":1131,"x_min":0,"x_max":0,"o":"m 85 0 l 315 0 l 315 582 l 314 706 l 328 706 l 747 0 l 1046 0 l 1046 972 l 815 972 l 815 390 l 817 267 l 803 267 l 383 972 l 85 972 z m 372 -410 l 578 -410 l 713 -42 l 507 -42 z "},"Ŋ":{"ha":1131,"x_min":0,"x_max":0,"o":"m 815 972 l 815 267 l 803 267 l 383 972 l 85 972 l 85 0 l 315 0 l 315 582 l 314 706 l 328 706 l 747 0 l 815 0 b 694 -101 815 -83 765 -101 l 665 -101 l 665 -278 l 733 -278 b 1046 0 939 -278 1046 -204 l 1046 972 z "},"Ñ":{"ha":1131,"x_min":0,"x_max":0,"o":"m 421 1068 b 703 1131 544 1068 588 1131 b 865 1082 750 1131 811 1119 l 865 1251 b 708 1299 817 1285 765 1299 b 426 1236 585 1299 544 1236 b 264 1285 378 1236 318 1247 l 264 1114 b 421 1068 313 1082 364 1068 z m 85 0 l 315 0 l 315 582 l 314 706 l 328 706 l 747 0 l 1046 0 l 1046 972 l 815 972 l 815 390 l 817 267 l 803 267 l 383 972 l 85 972 z "},"O":{"ha":1151,"x_min":0,"x_max":0,"o":"m 575 -21 b 1101 486 907 -21 1101 203 b 575 993 1101 769 907 993 b 50 486 243 993 50 769 b 575 -21 50 203 243 -21 z m 575 189 b 283 486 385 189 283 314 b 575 783 283 658 385 783 b 868 486 767 783 868 658 b 575 189 868 314 767 189 z "},"Ó":{"ha":1151,"x_min":0,"x_max":0,"o":"m 485 1065 l 696 1065 l 811 1294 l 600 1294 z m 575 -21 b 1101 486 907 -21 1101 203 b 575 993 1101 769 907 993 b 50 486 243 993 50 769 b 575 -21 50 203 243 -21 z m 575 189 b 283 486 385 189 283 314 b 575 783 283 658 385 783 b 868 486 767 783 868 658 b 575 189 868 314 767 189 z "},"Ǒ":{"ha":1151,"x_min":0,"x_max":0,"o":"m 415 1065 l 736 1065 l 851 1294 l 644 1294 l 576 1158 l 507 1294 l 300 1294 z m 575 993 b 50 486 243 993 50 769 b 575 -21 50 203 243 -21 b 1101 486 907 -21 1101 203 b 575 993 1101 769 907 993 z m 575 189 b 283 486 385 189 283 314 b 575 783 283 658 385 783 b 868 486 767 783 868 658 b 575 189 868 314 767 189 z "},"Ô":{"ha":1151,"x_min":0,"x_max":0,"o":"m 576 1200 l 644 1064 l 851 1064 l 736 1293 l 415 1293 l 300 1064 l 507 1064 z m 575 993 b 50 486 243 993 50 769 b 575 -21 50 203 243 -21 b 1101 486 907 -21 1101 203 b 575 993 1101 769 907 993 z m 575 189 b 283 486 385 189 283 314 b 575 783 283 658 385 783 b 868 486 767 783 868 658 b 575 189 868 314 767 189 z "},"Ö":{"ha":1151,"x_min":0,"x_max":0,"o":"m 374 1078 b 493 1189 449 1078 493 1129 b 374 1299 493 1249 449 1299 b 254 1189 299 1299 254 1249 b 374 1078 254 1129 299 1078 z m 778 1078 b 897 1189 853 1078 897 1129 b 778 1299 897 1249 853 1299 b 658 1189 703 1299 658 1249 b 778 1078 658 1129 703 1078 z m 575 -21 b 1101 486 907 -21 1101 203 b 575 993 1101 769 907 993 b 50 486 243 993 50 769 b 575 -21 50 203 243 -21 z m 575 189 b 283 486 385 189 283 314 b 575 783 283 658 385 783 b 868 486 767 783 868 658 b 575 189 868 314 767 189 z "},"Ò":{"ha":1151,"x_min":0,"x_max":0,"o":"m 682 1065 l 567 1294 l 356 1294 l 471 1065 z m 575 -21 b 1101 486 907 -21 1101 203 b 575 993 1101 769 907 993 b 50 486 243 993 50 769 b 575 -21 50 203 243 -21 z m 575 189 b 283 486 385 189 283 314 b 575 783 283 658 385 783 b 868 486 767 783 868 658 b 575 189 868 314 767 189 z "},"Ő":{"ha":1151,"x_min":0,"x_max":0,"o":"m 339 1038 l 550 1038 l 665 1267 l 454 1267 z m 601 1038 l 813 1038 l 928 1267 l 717 1267 z m 575 -21 b 1101 486 907 -21 1101 203 b 575 993 1101 769 907 993 b 50 486 243 993 50 769 b 575 -21 50 203 243 -21 z m 575 189 b 283 486 385 189 283 314 b 575 783 283 658 385 783 b 868 486 767 783 868 658 b 575 189 868 314 767 189 z "},"Ō":{"ha":1151,"x_min":0,"x_max":0,"o":"m 296 1097 l 853 1097 l 853 1294 l 296 1294 z m 575 -21 b 1101 486 907 -21 1101 203 b 575 993 1101 769 907 993 b 50 486 243 993 50 769 b 575 -21 50 203 243 -21 z m 575 189 b 283 486 385 189 283 314 b 575 783 283 658 385 783 b 868 486 767 783 868 658 b 575 189 868 314 767 189 z "},"Ø":{"ha":1151,"x_min":0,"x_max":0,"o":"m 997 806 l 1072 881 l 971 982 l 893 904 b 575 993 810 960 703 993 b 50 486 243 993 50 769 b 154 165 50 364 86 253 l 79 90 l 182 -10 l 260 68 b 575 -21 342 11 449 -21 b 1101 486 907 -21 1101 203 b 997 806 1101 608 1065 719 z m 283 486 b 575 783 283 658 385 783 b 735 746 638 783 692 769 l 318 329 b 283 486 296 374 283 428 z m 575 189 b 418 226 513 189 460 203 l 833 642 b 868 486 857 597 868 544 b 575 189 868 314 767 189 z "},"Õ":{"ha":1151,"x_min":0,"x_max":0,"o":"m 431 1068 b 713 1131 554 1068 597 1131 b 875 1082 760 1131 821 1119 l 875 1251 b 718 1299 826 1285 775 1299 b 436 1236 594 1299 554 1236 b 274 1285 388 1236 328 1247 l 274 1114 b 431 1068 322 1082 374 1068 z m 575 -21 b 1101 486 907 -21 1101 203 b 575 993 1101 769 907 993 b 50 486 243 993 50 769 b 575 -21 50 203 243 -21 z m 575 189 b 283 486 385 189 283 314 b 575 783 283 658 385 783 b 868 486 767 783 868 658 b 575 189 868 314 767 189 z "},"Œ":{"ha":1771,"x_min":0,"x_max":0,"o":"m 1703 769 l 1703 972 l 871 972 l 871 918 b 575 993 790 965 692 993 b 50 486 243 993 50 769 b 575 -21 50 203 243 -21 b 871 54 692 -21 790 7 l 871 0 l 1703 0 l 1703 203 l 1101 203 l 1101 392 l 1681 392 l 1681 572 l 1101 572 l 1101 769 z m 575 189 b 283 486 385 189 283 314 b 575 783 283 658 385 783 b 868 486 767 783 868 658 b 575 189 868 314 767 189 z "},"P":{"ha":1069,"x_min":0,"x_max":0,"o":"m 614 972 l 85 972 l 85 0 l 315 0 l 315 226 l 614 226 b 999 600 885 226 999 389 b 614 972 999 811 885 972 z m 588 431 l 315 431 l 315 768 l 588 768 b 768 600 713 768 768 710 b 588 431 768 488 713 431 z "},"Þ":{"ha":1063,"x_min":0,"x_max":0,"o":"m 626 863 l 315 863 l 315 972 l 85 972 l 85 0 l 315 0 l 315 110 l 626 110 b 1006 486 894 110 1006 276 b 626 863 1006 696 894 863 z m 594 318 l 315 318 l 315 654 l 594 654 b 775 486 719 654 775 588 b 594 318 775 385 719 318 z "},"Q":{"ha":1151,"x_min":0,"x_max":0,"o":"m 1101 486 b 575 993 1101 769 907 993 b 50 486 243 993 50 769 b 474 -14 50 233 204 28 l 474 -146 l 678 -146 l 678 -14 b 1101 486 947 28 1101 233 z m 678 203 l 678 419 l 474 419 l 474 203 b 283 486 349 240 283 347 b 575 783 283 658 385 783 b 868 486 767 783 868 658 b 678 203 868 347 803 240 z "},"R":{"ha":1061,"x_min":0,"x_max":0,"o":"m 1019 0 l 843 325 b 999 624 951 385 999 493 b 621 972 999 822 889 972 l 85 972 l 85 0 l 315 0 l 315 276 l 621 276 l 640 276 l 788 0 z m 315 768 l 593 768 b 768 624 718 768 768 719 b 593 481 768 529 718 481 l 315 481 z "},"Ŕ":{"ha":1061,"x_min":0,"x_max":0,"o":"m 778 1294 l 567 1294 l 451 1065 l 663 1065 z m 1019 0 l 843 325 b 999 624 951 385 999 493 b 621 972 999 822 889 972 l 85 972 l 85 0 l 315 0 l 315 276 l 621 276 l 640 276 l 788 0 z m 315 768 l 593 768 b 768 624 718 768 768 719 b 593 481 768 529 718 481 l 315 481 z "},"Ř":{"ha":1061,"x_min":0,"x_max":0,"o":"m 382 1065 l 703 1065 l 818 1294 l 611 1294 l 543 1158 l 474 1294 l 267 1294 z m 1019 0 l 843 325 b 999 624 951 385 999 493 b 621 972 999 822 889 972 l 85 972 l 85 0 l 315 0 l 315 276 l 621 276 l 640 276 l 788 0 z m 315 768 l 593 768 b 768 624 718 768 768 719 b 593 481 768 529 718 481 l 315 481 z "},"Ŗ":{"ha":1061,"x_min":0,"x_max":0,"o":"m 843 325 b 999 624 951 385 999 493 b 621 972 999 822 889 972 l 85 972 l 85 0 l 315 0 l 315 276 l 621 276 l 640 276 l 788 0 l 1019 0 z m 315 768 l 593 768 b 768 624 718 768 768 719 b 593 481 768 529 718 481 l 315 481 z m 301 -410 l 508 -410 l 643 -42 l 436 -42 z "},"S":{"ha":1006,"x_min":0,"x_max":0,"o":"m 485 -21 l 486 -21 b 957 294 819 -21 957 92 b 615 583 957 481 844 564 l 436 599 b 297 699 339 607 297 638 b 504 804 297 768 353 804 b 728 679 635 804 704 776 l 942 679 b 513 993 926 949 722 993 b 65 697 194 993 65 886 b 397 410 65 522 175 428 l 578 394 b 721 289 679 386 721 357 b 500 167 721 206 653 167 b 263 292 374 167 282 194 l 50 292 b 485 -21 65 21 276 -21 z "},"Ś":{"ha":1006,"x_min":0,"x_max":0,"o":"m 414 1065 l 625 1065 l 740 1294 l 529 1294 z m 485 -21 l 486 -21 b 957 294 819 -21 957 92 b 615 583 957 481 844 564 l 436 599 b 297 699 339 607 297 638 b 504 804 297 768 353 804 b 728 679 635 804 704 776 l 942 679 b 513 993 926 949 722 993 b 65 697 194 993 65 886 b 397 410 65 522 175 428 l 578 394 b 721 289 679 386 721 357 b 500 167 721 206 653 167 b 263 292 374 167 282 194 l 50 292 b 485 -21 65 21 276 -21 z "},"Š":{"ha":1006,"x_min":0,"x_max":0,"o":"m 343 1065 l 664 1065 l 779 1294 l 572 1294 l 504 1158 l 435 1294 l 228 1294 z m 615 583 l 436 599 b 297 699 339 607 297 638 b 504 804 297 768 353 804 b 728 679 635 804 704 776 l 942 679 b 513 993 926 949 722 993 b 65 697 194 993 65 886 b 397 410 65 522 175 428 l 578 394 b 721 289 679 386 721 357 b 500 167 721 206 653 167 b 263 292 374 167 282 194 l 50 292 b 485 -21 65 21 276 -21 l 486 -21 b 957 294 819 -21 957 92 b 615 583 957 481 844 564 z "},"Ş":{"ha":1006,"x_min":0,"x_max":0,"o":"m 957 294 b 615 583 957 481 844 564 l 436 599 b 297 699 339 607 297 638 b 504 804 297 768 353 804 b 728 679 635 804 704 776 l 942 679 b 513 993 926 949 722 993 b 65 697 194 993 65 886 b 397 410 65 522 175 428 l 578 394 b 721 289 679 386 721 357 b 500 167 721 206 653 167 b 263 292 374 167 282 194 l 50 292 b 447 -21 64 38 251 -15 l 376 -153 l 510 -153 b 553 -192 536 -153 553 -168 b 510 -235 553 -217 538 -235 b 471 -221 493 -235 482 -231 l 410 -299 b 524 -342 433 -325 474 -342 b 676 -194 617 -342 676 -283 b 540 -54 676 -110 619 -54 l 533 -54 l 554 -19 b 957 294 839 -4 957 106 z "},"Ș":{"ha":1006,"x_min":0,"x_max":0,"o":"m 485 -21 l 486 -21 b 957 294 819 -21 957 92 b 615 583 957 481 844 564 l 436 599 b 297 699 339 607 297 638 b 504 804 297 768 353 804 b 728 679 635 804 704 776 l 942 679 b 513 993 926 949 722 993 b 65 697 194 993 65 886 b 397 410 65 522 175 428 l 578 394 b 721 289 679 386 721 357 b 500 167 721 206 653 167 b 263 292 374 167 282 194 l 50 292 b 485 -21 65 21 276 -21 z m 288 -410 l 493 -410 l 628 -42 l 422 -42 z "},"ẞ":{"ha":999,"x_min":0,"x_max":0,"o":"m 682 589 l 879 754 l 879 972 l 368 972 b 85 678 171 972 85 860 l 85 0 l 315 0 l 315 643 b 426 764 315 726 353 764 l 636 764 l 435 588 l 435 442 l 564 442 b 711 324 660 442 711 406 b 564 208 711 242 660 208 l 435 208 l 435 0 l 578 0 b 942 306 833 0 942 121 b 682 589 942 465 861 569 z "},"T":{"ha":1013,"x_min":0,"x_max":0,"o":"m 971 972 l 42 972 l 42 768 l 392 768 l 392 0 l 622 0 l 622 768 l 971 768 z "},"Ŧ":{"ha":1013,"x_min":0,"x_max":0,"o":"m 971 768 l 971 972 l 42 972 l 42 768 l 392 768 l 392 569 l 81 569 l 81 361 l 392 361 l 392 0 l 622 0 l 622 361 l 933 361 l 933 569 l 622 569 l 622 768 z "},"Ť":{"ha":1013,"x_min":0,"x_max":0,"o":"m 346 1065 l 667 1065 l 782 1294 l 575 1294 l 507 1158 l 438 1294 l 231 1294 z m 971 972 l 42 972 l 42 768 l 392 768 l 392 0 l 622 0 l 622 768 l 971 768 z "},"Ţ":{"ha":1013,"x_min":0,"x_max":0,"o":"m 622 0 l 622 768 l 971 768 l 971 972 l 42 972 l 42 768 l 392 768 l 392 0 l 461 0 l 379 -153 l 513 -153 b 556 -192 539 -153 556 -168 b 513 -235 556 -217 540 -235 b 474 -221 496 -235 485 -231 l 413 -299 b 526 -342 436 -325 476 -342 b 679 -194 619 -342 679 -283 b 543 -54 679 -110 622 -54 l 536 -54 l 568 0 z "},"Ț":{"ha":1013,"x_min":0,"x_max":0,"o":"m 971 972 l 42 972 l 42 768 l 392 768 l 392 0 l 622 0 l 622 768 l 971 768 z m 242 -410 l 449 -410 l 583 -42 l 376 -42 z "},"U":{"ha":1096,"x_min":0,"x_max":0,"o":"m 549 -21 b 1013 429 878 -21 1013 147 l 1013 972 l 782 972 l 782 429 b 549 189 782 269 707 189 b 315 429 389 189 315 269 l 315 972 l 85 972 l 85 429 b 549 -21 85 147 218 -21 z "},"Ú":{"ha":1096,"x_min":0,"x_max":0,"o":"m 457 1065 l 668 1065 l 783 1294 l 572 1294 z m 549 -21 b 1013 429 878 -21 1013 147 l 1013 972 l 782 972 l 782 429 b 549 189 782 269 707 189 b 315 429 389 189 315 269 l 315 972 l 85 972 l 85 429 b 549 -21 85 147 218 -21 z "},"Ŭ":{"ha":1096,"x_min":0,"x_max":0,"o":"m 549 1028 b 831 1294 753 1028 839 1128 l 636 1294 b 549 1189 644 1222 608 1189 b 461 1294 488 1189 453 1222 l 265 1294 b 549 1028 257 1128 344 1028 z m 549 -21 b 1013 429 878 -21 1013 147 l 1013 972 l 782 972 l 782 429 b 549 189 782 269 707 189 b 315 429 389 189 315 269 l 315 972 l 85 972 l 85 429 b 549 -21 85 147 218 -21 z "},"Ǔ":{"ha":1096,"x_min":0,"x_max":0,"o":"m 388 1065 l 708 1065 l 824 1294 l 617 1294 l 549 1158 l 479 1294 l 272 1294 z m 782 972 l 782 429 b 549 189 782 269 707 189 b 315 429 389 189 315 269 l 315 972 l 85 972 l 85 429 b 549 -21 85 147 218 -21 b 1013 429 878 -21 1013 147 l 1013 972 z "},"Û":{"ha":1096,"x_min":0,"x_max":0,"o":"m 549 1200 l 617 1064 l 824 1064 l 708 1293 l 388 1293 l 272 1064 l 479 1064 z m 782 972 l 782 429 b 549 189 782 269 707 189 b 315 429 389 189 315 269 l 315 972 l 85 972 l 85 429 b 549 -21 85 147 218 -21 b 1013 429 878 -21 1013 147 l 1013 972 z "},"Ü":{"ha":1096,"x_min":0,"x_max":0,"o":"m 346 1078 b 465 1189 421 1078 465 1129 b 346 1299 465 1249 421 1299 b 226 1189 271 1299 226 1249 b 346 1078 226 1129 271 1078 z m 750 1078 b 869 1189 825 1078 869 1129 b 750 1299 869 1249 825 1299 b 631 1189 675 1299 631 1249 b 750 1078 631 1129 675 1078 z m 549 -21 b 1013 429 878 -21 1013 147 l 1013 972 l 782 972 l 782 429 b 549 189 782 269 707 189 b 315 429 389 189 315 269 l 315 972 l 85 972 l 85 429 b 549 -21 85 147 218 -21 z "},"Ù":{"ha":1096,"x_min":0,"x_max":0,"o":"m 654 1065 l 539 1294 l 328 1294 l 443 1065 z m 549 -21 b 1013 429 878 -21 1013 147 l 1013 972 l 782 972 l 782 429 b 549 189 782 269 707 189 b 315 429 389 189 315 269 l 315 972 l 85 972 l 85 429 b 549 -21 85 147 218 -21 z "},"Ű":{"ha":1096,"x_min":0,"x_max":0,"o":"m 311 1038 l 522 1038 l 638 1267 l 426 1267 z m 574 1038 l 785 1038 l 900 1267 l 689 1267 z m 549 -21 b 1013 429 878 -21 1013 147 l 1013 972 l 782 972 l 782 429 b 549 189 782 269 707 189 b 315 429 389 189 315 269 l 315 972 l 85 972 l 85 429 b 549 -21 85 147 218 -21 z "},"Ū":{"ha":1096,"x_min":0,"x_max":0,"o":"m 269 1097 l 826 1097 l 826 1294 l 269 1294 z m 549 -21 b 1013 429 878 -21 1013 147 l 1013 972 l 782 972 l 782 429 b 549 189 782 269 707 189 b 315 429 389 189 315 269 l 315 972 l 85 972 l 85 429 b 549 -21 85 147 218 -21 z "},"Ų":{"ha":1096,"x_min":0,"x_max":0,"o":"m 782 972 l 782 429 b 549 189 782 269 707 189 b 315 429 389 189 315 269 l 315 972 l 85 972 l 85 429 b 488 -19 85 165 201 1 b 375 -192 426 -54 375 -107 b 571 -350 375 -285 436 -350 b 665 -335 613 -350 640 -344 l 665 -183 l 644 -185 b 557 -121 590 -187 557 -164 b 668 -12 557 -82 583 -39 b 1013 429 911 25 1013 183 l 1013 972 z "},"Ů":{"ha":1096,"x_min":0,"x_max":0,"o":"m 547 1035 b 693 1176 639 1035 693 1099 b 547 1317 693 1253 639 1317 b 403 1176 457 1317 403 1253 b 547 1035 403 1099 457 1035 z m 547 1133 b 504 1176 519 1133 504 1151 b 547 1218 504 1200 519 1218 b 592 1176 576 1218 592 1200 b 547 1133 592 1151 576 1133 z m 549 -21 b 1013 429 878 -21 1013 147 l 1013 972 l 782 972 l 782 429 b 549 189 782 269 707 189 b 315 429 389 189 315 269 l 315 972 l 85 972 l 85 429 b 549 -21 85 147 218 -21 z "},"V":{"ha":1129,"x_min":0,"x_max":0,"o":"m 868 972 l 565 256 l 263 972 l 22 972 l 440 0 l 689 0 l 1108 972 z "},"W":{"ha":1674,"x_min":0,"x_max":0,"o":"m 1413 972 l 1201 285 l 951 972 l 722 972 l 472 282 l 261 972 l 22 972 l 329 0 l 588 0 l 836 686 l 1086 0 l 1344 0 l 1651 972 z "},"Ẃ":{"ha":1674,"x_min":0,"x_max":0,"o":"m 1074 1294 l 863 1294 l 747 1065 l 958 1065 z m 1413 972 l 1201 285 l 951 972 l 722 972 l 472 282 l 261 972 l 22 972 l 329 0 l 588 0 l 836 686 l 1086 0 l 1344 0 l 1651 972 z "},"Ŵ":{"ha":1674,"x_min":0,"x_max":0,"o":"m 839 1200 l 907 1064 l 1114 1064 l 999 1293 l 678 1293 l 563 1064 l 769 1064 z m 1413 972 l 1201 285 l 951 972 l 722 972 l 472 282 l 261 972 l 22 972 l 329 0 l 588 0 l 836 686 l 1086 0 l 1344 0 l 1651 972 z "},"Ẅ":{"ha":1674,"x_min":0,"x_max":0,"o":"m 635 1078 b 754 1189 710 1078 754 1129 b 635 1299 754 1249 710 1299 b 515 1189 560 1299 515 1249 b 635 1078 515 1129 560 1078 z m 1039 1078 b 1158 1189 1114 1078 1158 1129 b 1039 1299 1158 1249 1114 1299 b 919 1189 964 1299 919 1249 b 1039 1078 919 1129 964 1078 z m 1413 972 l 1201 285 l 951 972 l 722 972 l 472 282 l 261 972 l 22 972 l 329 0 l 588 0 l 836 686 l 1086 0 l 1344 0 l 1651 972 z "},"Ẁ":{"ha":1674,"x_min":0,"x_max":0,"o":"m 944 1065 l 829 1294 l 618 1294 l 733 1065 z m 1413 972 l 1201 285 l 951 972 l 722 972 l 472 282 l 261 972 l 22 972 l 329 0 l 588 0 l 836 686 l 1086 0 l 1344 0 l 1651 972 z "},"X":{"ha":1131,"x_min":0,"x_max":0,"o":"m 22 0 l 306 0 l 565 333 l 825 0 l 1108 0 l 719 486 l 1106 972 l 822 972 l 565 639 l 308 972 l 25 972 l 410 486 z "},"Y":{"ha":1144,"x_min":0,"x_max":0,"o":"m 1122 972 l 879 972 l 578 461 l 567 461 l 265 972 l 22 972 l 457 239 l 457 0 l 688 0 l 688 239 z "},"Ý":{"ha":1144,"x_min":0,"x_max":0,"o":"m 808 1294 l 597 1294 l 482 1065 l 693 1065 z m 1122 972 l 879 972 l 578 461 l 567 461 l 265 972 l 22 972 l 457 239 l 457 0 l 688 0 l 688 239 z "},"Ŷ":{"ha":1144,"x_min":0,"x_max":0,"o":"m 574 1200 l 642 1064 l 849 1064 l 733 1293 l 413 1293 l 297 1064 l 504 1064 z m 1122 972 l 879 972 l 578 461 l 567 461 l 265 972 l 22 972 l 457 239 l 457 0 l 688 0 l 688 239 z "},"Ÿ":{"ha":1144,"x_min":0,"x_max":0,"o":"m 369 1078 b 489 1189 444 1078 489 1129 b 369 1299 489 1249 444 1299 b 250 1189 294 1299 250 1249 b 369 1078 250 1129 294 1078 z m 774 1078 b 893 1189 849 1078 893 1129 b 774 1299 893 1249 849 1299 b 654 1189 699 1299 654 1249 b 774 1078 654 1129 699 1078 z m 1122 972 l 879 972 l 578 461 l 567 461 l 265 972 l 22 972 l 457 239 l 457 0 l 688 0 l 688 239 z "},"Ỳ":{"ha":1144,"x_min":0,"x_max":0,"o":"m 679 1065 l 564 1294 l 353 1294 l 468 1065 z m 1122 972 l 879 972 l 578 461 l 567 461 l 265 972 l 22 972 l 457 239 l 457 0 l 688 0 l 688 239 z "},"Z":{"ha":1028,"x_min":0,"x_max":0,"o":"m 85 0 l 943 0 l 943 203 l 364 203 l 943 769 l 943 972 l 97 972 l 97 769 l 664 769 l 85 203 z "},"Ź":{"ha":1028,"x_min":0,"x_max":0,"o":"m 424 1065 l 635 1065 l 750 1294 l 539 1294 z m 85 0 l 943 0 l 943 203 l 364 203 l 943 769 l 943 972 l 97 972 l 97 769 l 664 769 l 85 203 z "},"Ž":{"ha":1028,"x_min":0,"x_max":0,"o":"m 354 1065 l 675 1065 l 790 1294 l 583 1294 l 515 1158 l 446 1294 l 239 1294 z m 943 972 l 97 972 l 97 769 l 664 769 l 85 203 l 85 0 l 943 0 l 943 203 l 364 203 l 943 769 z "},"Ż":{"ha":1028,"x_min":0,"x_max":0,"o":"m 514 1078 b 633 1189 589 1078 633 1129 b 514 1299 633 1249 589 1299 b 394 1189 439 1299 394 1249 b 514 1078 394 1129 439 1078 z m 85 0 l 943 0 l 943 203 l 364 203 l 943 769 l 943 972 l 97 972 l 97 769 l 664 769 l 85 203 z "},"a":{"ha":872,"x_min":0,"x_max":0,"o":"m 435 743 b 81 499 215 743 74 686 l 279 499 b 425 576 289 557 331 576 b 571 483 528 576 571 553 l 571 428 l 319 428 b 43 210 131 428 43 356 b 297 -21 43 56 140 -21 b 611 126 417 -21 550 24 l 586 75 l 606 0 l 794 0 l 794 507 b 435 743 794 663 685 743 z m 378 147 b 271 221 300 147 271 176 b 356 292 271 267 300 292 l 571 292 l 571 207 b 388 147 524 168 458 147 z "},"á":{"ha":872,"x_min":0,"x_max":0,"o":"m 675 1044 l 464 1044 l 349 815 l 560 815 z m 435 743 b 81 499 215 743 74 686 l 279 499 b 425 576 289 557 331 576 b 571 483 528 576 571 553 l 571 428 l 319 428 b 43 210 131 428 43 356 b 297 -21 43 56 140 -21 b 611 126 417 -21 550 24 l 586 75 l 606 0 l 794 0 l 794 507 b 435 743 794 663 685 743 z m 378 147 b 271 221 300 147 271 176 b 356 292 271 267 300 292 l 571 292 l 571 207 b 388 147 524 168 458 147 z "},"ă":{"ha":872,"x_min":0,"x_max":0,"o":"m 440 778 b 722 1044 644 778 731 878 l 528 1044 b 440 939 536 972 500 939 b 353 1044 379 939 344 972 l 157 1044 b 440 778 149 878 236 778 z m 435 743 b 81 499 215 743 74 686 l 279 499 b 425 576 289 557 331 576 b 571 483 528 576 571 553 l 571 428 l 319 428 b 43 210 131 428 43 356 b 297 -21 43 56 140 -21 b 611 126 417 -21 550 24 l 586 75 l 606 0 l 794 0 l 794 507 b 435 743 794 663 685 743 z m 378 147 b 271 221 300 147 271 176 b 356 292 271 267 300 292 l 571 292 l 571 207 b 388 147 524 168 458 147 z "},"ǎ":{"ha":872,"x_min":0,"x_max":0,"o":"m 279 815 l 600 815 l 715 1044 l 508 1044 l 440 908 l 371 1044 l 164 1044 z m 435 743 b 81 499 215 743 74 686 l 279 499 b 425 576 289 557 331 576 b 571 483 528 576 571 553 l 571 428 l 319 428 b 43 210 131 428 43 356 b 297 -21 43 56 140 -21 b 611 126 417 -21 550 24 l 586 75 l 606 0 l 794 0 l 794 507 b 435 743 794 663 685 743 z m 378 147 b 271 221 300 147 271 176 b 356 292 271 267 300 292 l 571 292 l 571 207 b 388 147 524 168 458 147 z "},"â":{"ha":872,"x_min":0,"x_max":0,"o":"m 440 950 l 508 814 l 715 814 l 600 1043 l 279 1043 l 164 814 l 371 814 z m 435 743 b 81 499 215 743 74 686 l 279 499 b 425 576 289 557 331 576 b 571 483 528 576 571 553 l 571 428 l 319 428 b 43 210 131 428 43 356 b 297 -21 43 56 140 -21 b 611 126 417 -21 550 24 l 586 75 l 606 0 l 794 0 l 794 507 b 435 743 794 663 685 743 z m 378 147 b 271 221 300 147 271 176 b 356 292 271 267 300 292 l 571 292 l 571 207 b 388 147 524 168 458 147 z "},"ä":{"ha":872,"x_min":0,"x_max":0,"o":"m 238 828 b 357 939 313 828 357 879 b 238 1049 357 999 313 1049 b 118 939 163 1049 118 999 b 238 828 118 879 163 828 z m 642 828 b 761 939 717 828 761 879 b 642 1049 761 999 717 1049 b 522 939 567 1049 522 999 b 642 828 522 879 567 828 z m 435 743 b 81 499 215 743 74 686 l 279 499 b 425 576 289 557 331 576 b 571 483 528 576 571 553 l 571 428 l 319 428 b 43 210 131 428 43 356 b 297 -21 43 56 140 -21 b 611 126 417 -21 550 24 l 586 75 l 606 0 l 794 0 l 794 507 b 435 743 794 663 685 743 z m 378 147 b 271 221 300 147 271 176 b 356 292 271 267 300 292 l 571 292 l 571 207 b 388 147 524 168 458 147 z "},"à":{"ha":872,"x_min":0,"x_max":0,"o":"m 546 815 l 431 1044 l 219 1044 l 335 815 z m 435 743 b 81 499 215 743 74 686 l 279 499 b 425 576 289 557 331 576 b 571 483 528 576 571 553 l 571 428 l 319 428 b 43 210 131 428 43 356 b 297 -21 43 56 140 -21 b 611 126 417 -21 550 24 l 586 75 l 606 0 l 794 0 l 794 507 b 435 743 794 663 685 743 z m 378 147 b 271 221 300 147 271 176 b 356 292 271 267 300 292 l 571 292 l 571 207 b 388 147 524 168 458 147 z "},"ā":{"ha":872,"x_min":0,"x_max":0,"o":"m 717 1044 l 160 1044 l 160 847 l 717 847 z m 435 743 b 81 499 215 743 74 686 l 279 499 b 425 576 289 557 331 576 b 571 483 528 576 571 553 l 571 428 l 319 428 b 43 210 131 428 43 356 b 297 -21 43 56 140 -21 b 611 126 417 -21 550 24 l 586 75 l 606 0 l 794 0 l 794 507 b 435 743 794 663 685 743 z m 378 147 b 271 221 300 147 271 176 b 356 292 271 267 300 292 l 571 292 l 571 207 b 388 147 524 168 458 147 z "},"ą":{"ha":872,"x_min":0,"x_max":0,"o":"m 435 743 b 81 499 215 743 74 686 l 279 499 b 425 576 289 557 331 576 b 571 483 528 576 571 553 l 571 428 l 319 428 b 43 210 131 428 43 356 b 297 -21 43 56 140 -21 b 611 126 417 -21 550 24 l 586 75 l 603 11 b 424 -192 519 -19 424 -78 b 619 -350 424 -285 485 -350 b 714 -335 661 -350 689 -344 l 714 -183 l 693 -185 b 606 -121 639 -187 606 -164 b 767 0 606 -75 642 -24 l 794 0 l 794 507 b 435 743 794 663 685 743 z m 378 147 b 271 221 300 147 271 176 b 356 292 271 267 300 292 l 571 292 l 571 207 b 388 147 524 168 458 147 z "},"å":{"ha":872,"x_min":0,"x_max":0,"o":"m 439 785 b 585 926 531 785 585 849 b 439 1067 585 1003 531 1067 b 294 926 349 1067 294 1003 b 439 785 294 849 349 785 z m 439 968 b 483 926 468 968 483 950 b 439 883 483 901 468 883 b 396 926 411 883 396 901 b 439 968 396 950 411 968 z m 435 743 b 81 499 215 743 74 686 l 279 499 b 425 576 289 557 331 576 b 571 483 528 576 571 553 l 571 428 l 319 428 b 43 210 131 428 43 356 b 297 -21 43 56 140 -21 b 611 126 417 -21 550 24 l 586 75 l 606 0 l 794 0 l 794 507 b 435 743 794 663 685 743 z m 378 147 b 271 221 300 147 271 176 b 356 292 271 267 300 292 l 571 292 l 571 207 b 388 147 524 168 458 147 z "},"ã":{"ha":872,"x_min":0,"x_max":0,"o":"m 576 881 b 739 832 624 881 685 869 l 739 1001 b 582 1049 690 1035 639 1049 b 300 986 458 1049 418 986 b 138 1035 251 986 192 997 l 138 864 b 294 818 186 832 238 818 b 576 881 418 818 461 881 z m 435 743 b 81 499 215 743 74 686 l 279 499 b 425 576 289 557 331 576 b 571 483 528 576 571 553 l 571 428 l 319 428 b 43 210 131 428 43 356 b 297 -21 43 56 140 -21 b 611 126 417 -21 550 24 l 586 75 l 606 0 l 794 0 l 794 507 b 435 743 794 663 685 743 z m 378 147 b 271 221 300 147 271 176 b 356 292 271 267 300 292 l 571 292 l 571 207 b 388 147 524 168 458 147 z "},"æ":{"ha":1406,"x_min":0,"x_max":0,"o":"m 796 294 l 1360 294 b 971 743 1382 576 1226 743 b 715 668 865 743 781 715 b 433 743 661 718 571 743 b 79 499 269 743 90 706 l 276 499 b 428 576 293 558 338 576 b 571 482 526 576 571 554 l 571 438 l 338 438 b 43 210 136 438 43 354 b 335 -21 43 53 156 -21 b 658 106 440 -21 568 7 b 971 -21 726 28 831 -21 b 1342 224 1190 -21 1318 101 l 1128 224 b 982 150 1107 174 1053 150 b 796 294 871 150 814 204 z m 971 579 b 1140 429 1064 579 1119 538 l 794 429 b 971 579 811 528 868 579 z m 368 156 b 269 221 303 156 269 181 b 350 288 269 261 292 288 l 571 288 l 571 238 b 368 156 521 181 433 156 z "},"b":{"ha":936,"x_min":0,"x_max":0,"o":"m 539 742 b 261 571 428 742 335 697 l 301 647 l 301 986 l 78 986 l 78 0 l 297 0 l 300 90 b 539 -21 358 11 444 -21 b 894 361 756 -21 894 149 b 539 742 894 572 756 742 z m 486 175 b 299 361 371 175 299 253 b 486 547 299 469 371 547 b 672 361 601 547 672 469 b 486 175 672 253 601 175 z "},"c":{"ha":867,"x_min":0,"x_max":0,"o":"m 443 -21 b 824 289 668 -21 804 107 l 604 289 b 443 178 586 217 526 178 b 264 361 329 178 264 254 b 443 544 264 468 329 544 b 604 433 526 544 586 506 l 824 433 b 443 743 803 615 668 743 b 43 361 182 743 43 574 b 443 -21 43 149 182 -21 z "},"ć":{"ha":867,"x_min":0,"x_max":0,"o":"m 343 815 l 554 815 l 669 1044 l 458 1044 z m 443 -21 b 824 289 668 -21 804 107 l 604 289 b 443 178 586 217 526 178 b 264 361 329 178 264 254 b 443 544 264 468 329 544 b 604 433 526 544 586 506 l 824 433 b 443 743 803 615 668 743 b 43 361 182 743 43 574 b 443 -21 43 149 182 -21 z "},"č":{"ha":867,"x_min":0,"x_max":0,"o":"m 274 815 l 594 815 l 710 1044 l 503 1044 l 435 908 l 365 1044 l 158 1044 z m 443 178 b 264 361 329 178 264 254 b 443 544 264 468 329 544 b 604 433 526 544 586 506 l 824 433 b 443 743 803 615 668 743 b 43 361 182 743 43 574 b 443 -21 43 149 182 -21 b 824 289 668 -21 804 107 l 604 289 b 443 178 586 217 526 178 z "},"ç":{"ha":867,"x_min":0,"x_max":0,"o":"m 443 178 b 264 361 329 178 264 254 b 443 544 264 468 329 544 b 604 433 526 544 586 506 l 824 433 b 443 743 803 615 668 743 b 43 361 182 743 43 574 b 379 -17 43 167 160 8 l 307 -153 l 440 -153 b 483 -192 467 -153 483 -168 b 440 -235 483 -217 468 -235 b 401 -221 424 -235 413 -231 l 340 -299 b 454 -342 364 -325 404 -342 b 607 -194 547 -342 607 -283 b 471 -54 607 -110 550 -54 l 464 -54 l 485 -19 b 824 289 685 -4 806 118 l 604 289 b 443 178 586 217 526 178 z "},"ċ":{"ha":867,"x_min":0,"x_max":0,"o":"m 433 828 b 553 939 508 828 553 879 b 433 1049 553 999 508 1049 b 314 939 358 1049 314 999 b 433 828 314 879 358 828 z m 443 -21 b 824 289 668 -21 804 107 l 604 289 b 443 178 586 217 526 178 b 264 361 329 178 264 254 b 443 544 264 468 329 544 b 604 433 526 544 586 506 l 824 433 b 443 743 803 615 668 743 b 43 361 182 743 43 574 b 443 -21 43 149 182 -21 z "},"d":{"ha":936,"x_min":0,"x_max":0,"o":"m 635 986 l 635 647 l 676 571 b 397 742 601 697 510 742 b 43 361 181 742 43 572 b 397 -21 43 149 181 -21 b 636 90 493 -21 578 11 l 639 0 l 860 0 l 860 986 z m 450 175 b 264 361 335 175 264 253 b 450 547 264 469 335 547 b 638 361 565 547 638 469 b 450 175 638 253 565 175 z "},"ð":{"ha":897,"x_min":0,"x_max":0,"o":"m 725 690 l 626 815 l 753 815 l 753 972 l 503 972 l 415 1083 l 172 1083 l 261 972 l 121 972 l 121 815 l 386 815 l 443 743 b 43 371 179 742 43 574 b 447 -21 43 154 194 -21 b 856 371 703 -21 856 154 b 725 690 856 471 826 561 z m 449 183 b 269 361 339 183 269 260 b 449 539 269 463 339 539 b 629 361 560 539 629 463 b 449 183 629 260 560 183 z "},"ď":{"ha":1103,"x_min":0,"x_max":0,"o":"m 1028 1004 b 904 885 953 1004 904 951 b 1015 767 904 822 946 772 l 1014 653 b 1157 863 1099 696 1157 776 l 1157 874 b 1028 1004 1157 943 1108 1004 z m 635 647 l 676 571 b 397 742 601 697 510 742 b 43 361 181 742 43 572 b 397 -21 43 149 181 -21 b 636 90 493 -21 578 11 l 639 0 l 860 0 l 860 986 l 635 986 z m 450 175 b 264 361 335 175 264 253 b 450 547 264 469 335 547 b 638 361 565 547 638 469 b 450 175 638 253 565 175 z "},"đ":{"ha":929,"x_min":0,"x_max":0,"o":"m 915 921 l 860 921 l 860 986 l 635 986 l 635 921 l 414 921 l 414 772 l 635 772 l 635 647 l 676 571 b 397 742 601 697 510 742 b 43 361 181 742 43 572 b 397 -21 43 149 181 -21 b 636 90 493 -21 578 11 l 639 0 l 860 0 l 860 772 l 915 772 z m 450 175 b 264 361 335 175 264 253 b 450 547 264 469 335 547 b 638 361 565 547 638 469 b 450 175 638 253 565 175 z "},"e":{"ha":876,"x_min":0,"x_max":0,"o":"m 268 294 l 832 294 b 443 743 854 576 699 743 b 43 361 186 743 43 576 b 442 -21 43 146 183 -21 b 813 224 663 -21 790 101 l 600 224 b 454 150 579 174 525 150 b 268 294 343 150 286 204 z m 443 579 b 613 429 536 579 592 538 l 267 429 b 443 579 283 528 340 579 z "},"é":{"ha":876,"x_min":0,"x_max":0,"o":"m 675 1044 l 464 1044 l 349 815 l 560 815 z m 268 294 l 832 294 b 443 743 854 576 699 743 b 43 361 186 743 43 576 b 442 -21 43 146 183 -21 b 813 224 663 -21 790 101 l 600 224 b 454 150 579 174 525 150 b 268 294 343 150 286 204 z m 443 579 b 613 429 536 579 592 538 l 267 429 b 443 579 283 528 340 579 z "},"ě":{"ha":876,"x_min":0,"x_max":0,"o":"m 279 815 l 600 815 l 715 1044 l 508 1044 l 440 908 l 371 1044 l 164 1044 z m 268 294 l 832 294 b 443 743 854 576 699 743 b 43 361 186 743 43 576 b 442 -21 43 146 183 -21 b 813 224 663 -21 790 101 l 600 224 b 454 150 579 174 525 150 b 268 294 343 150 286 204 z m 443 579 b 613 429 536 579 592 538 l 267 429 b 443 579 283 528 340 579 z "},"ê":{"ha":876,"x_min":0,"x_max":0,"o":"m 440 950 l 508 814 l 715 814 l 600 1043 l 279 1043 l 164 814 l 371 814 z m 268 294 l 832 294 b 443 743 854 576 699 743 b 43 361 186 743 43 576 b 442 -21 43 146 183 -21 b 813 224 663 -21 790 101 l 600 224 b 454 150 579 174 525 150 b 268 294 343 150 286 204 z m 443 579 b 613 429 536 579 592 538 l 267 429 b 443 579 283 528 340 579 z "},"ë":{"ha":876,"x_min":0,"x_max":0,"o":"m 238 828 b 357 939 313 828 357 879 b 238 1049 357 999 313 1049 b 118 939 163 1049 118 999 b 238 828 118 879 163 828 z m 642 828 b 761 939 717 828 761 879 b 642 1049 761 999 717 1049 b 522 939 567 1049 522 999 b 642 828 522 879 567 828 z m 268 294 l 832 294 b 443 743 854 576 699 743 b 43 361 186 743 43 576 b 442 -21 43 146 183 -21 b 813 224 663 -21 790 101 l 600 224 b 454 150 579 174 525 150 b 268 294 343 150 286 204 z m 443 579 b 613 429 536 579 592 538 l 267 429 b 443 579 283 528 340 579 z "},"ė":{"ha":876,"x_min":0,"x_max":0,"o":"m 439 828 b 558 939 514 828 558 879 b 439 1049 558 999 514 1049 b 319 939 364 1049 319 999 b 439 828 319 879 364 828 z m 268 294 l 832 294 b 443 743 854 576 699 743 b 43 361 186 743 43 576 b 442 -21 43 146 183 -21 b 813 224 663 -21 790 101 l 600 224 b 454 150 579 174 525 150 b 268 294 343 150 286 204 z m 443 579 b 613 429 536 579 592 538 l 267 429 b 443 579 283 528 340 579 z "},"è":{"ha":876,"x_min":0,"x_max":0,"o":"m 546 815 l 431 1044 l 219 1044 l 335 815 z m 268 294 l 832 294 b 443 743 854 576 699 743 b 43 361 186 743 43 576 b 442 -21 43 146 183 -21 b 813 224 663 -21 790 101 l 600 224 b 454 150 579 174 525 150 b 268 294 343 150 286 204 z m 443 579 b 613 429 536 579 592 538 l 267 429 b 443 579 283 528 340 579 z "},"ē":{"ha":876,"x_min":0,"x_max":0,"o":"m 717 1044 l 160 1044 l 160 847 l 717 847 z m 268 294 l 832 294 b 443 743 854 576 699 743 b 43 361 186 743 43 576 b 442 -21 43 146 183 -21 b 813 224 663 -21 790 101 l 600 224 b 454 150 579 174 525 150 b 268 294 343 150 286 204 z m 443 579 b 613 429 536 579 592 538 l 267 429 b 443 579 283 528 340 579 z "},"ę":{"ha":876,"x_min":0,"x_max":0,"o":"m 268 294 l 832 294 b 443 743 854 576 699 743 b 43 361 186 743 43 576 b 363 -15 43 169 154 15 b 243 -192 299 -50 243 -104 b 439 -350 243 -285 304 -350 b 533 -335 481 -350 508 -344 l 533 -183 l 513 -185 b 425 -121 458 -187 425 -164 b 532 -14 425 -82 450 -40 b 813 224 697 15 793 119 l 600 224 b 454 150 579 174 525 150 b 268 294 343 150 286 204 z m 443 579 b 613 429 536 579 592 538 l 267 429 b 443 579 283 528 340 579 z "},"f":{"ha":649,"x_min":0,"x_max":0,"o":"m 519 838 l 607 838 l 607 1021 l 479 1021 b 197 747 271 1021 197 913 l 197 722 l 42 722 l 42 532 l 197 532 l 197 0 l 421 0 l 421 532 l 607 532 l 607 722 l 421 722 l 421 746 b 519 838 421 815 451 838 z "},"g":{"ha":918,"x_min":0,"x_max":0,"o":"m 414 -231 b 840 106 619 -231 840 -160 l 840 722 l 624 722 l 617 643 l 656 571 b 383 742 585 697 496 742 b 43 383 175 742 43 590 b 385 35 43 178 171 35 b 629 147 482 35 583 64 l 625 113 l 625 99 b 388 -62 625 -46 471 -62 b 146 -14 274 -62 190 -33 l 146 -167 b 414 -231 193 -201 282 -231 z m 442 210 b 264 383 329 210 264 285 b 442 557 264 482 329 557 b 618 383 554 557 618 482 b 442 210 618 285 554 210 z "},"ğ":{"ha":918,"x_min":0,"x_max":0,"o":"m 460 778 b 742 1044 664 778 750 878 l 547 1044 b 460 939 556 972 519 939 b 372 1044 399 939 364 972 l 176 1044 b 460 778 168 878 256 778 z m 414 -231 b 840 106 619 -231 840 -160 l 840 722 l 624 722 l 617 643 l 656 571 b 383 742 585 697 496 742 b 43 383 175 742 43 590 b 385 35 43 178 171 35 b 629 147 482 35 583 64 l 625 113 l 625 99 b 388 -62 625 -46 471 -62 b 146 -14 274 -62 190 -33 l 146 -167 b 414 -231 193 -201 282 -231 z m 442 210 b 264 383 329 210 264 285 b 442 557 264 482 329 557 b 618 383 554 557 618 482 b 442 210 618 285 554 210 z "},"ģ":{"ha":918,"x_min":0,"x_max":0,"o":"m 369 815 l 581 815 l 696 1044 l 485 1044 z m 414 -231 b 840 106 619 -231 840 -160 l 840 722 l 624 722 l 617 643 l 656 571 b 383 742 585 697 496 742 b 43 383 175 742 43 590 b 385 35 43 178 171 35 b 629 147 482 35 583 64 l 625 113 l 625 99 b 388 -62 625 -46 471 -62 b 146 -14 274 -62 190 -33 l 146 -167 b 414 -231 193 -201 282 -231 z m 442 210 b 264 383 329 210 264 285 b 442 557 264 482 329 557 b 618 383 554 557 618 482 b 442 210 618 285 554 210 z "},"ġ":{"ha":918,"x_min":0,"x_max":0,"o":"m 460 828 b 579 939 535 828 579 879 b 460 1049 579 999 535 1049 b 340 939 385 1049 340 999 b 460 828 340 879 385 828 z m 414 -231 b 840 106 619 -231 840 -160 l 840 722 l 624 722 l 617 643 l 656 571 b 383 742 585 697 496 742 b 43 383 175 742 43 590 b 385 35 43 178 171 35 b 629 147 482 35 583 64 l 625 113 l 625 99 b 388 -62 625 -46 471 -62 b 146 -14 274 -62 190 -33 l 146 -167 b 414 -231 193 -201 282 -231 z m 442 210 b 264 383 329 210 264 285 b 442 557 264 482 329 557 b 618 383 554 557 618 482 b 442 210 618 285 554 210 z "},"h":{"ha":935,"x_min":0,"x_max":0,"o":"m 560 743 b 281 575 404 743 329 669 l 301 626 l 301 986 l 78 986 l 78 0 l 301 0 l 301 369 b 475 547 301 478 358 547 b 633 371 592 547 633 478 l 633 0 l 858 0 l 858 413 b 560 743 858 617 764 743 z "},"ħ":{"ha":935,"x_min":0,"x_max":0,"o":"m 560 743 b 281 575 404 743 329 669 l 301 626 l 301 771 l 518 771 l 518 928 l 301 928 l 301 986 l 78 986 l 78 928 l 0 928 l 0 771 l 78 771 l 78 0 l 301 0 l 301 369 b 475 547 301 478 358 547 b 633 371 592 547 633 478 l 633 0 l 858 0 l 858 413 b 560 743 858 617 764 743 z "},"i":{"ha":381,"x_min":0,"x_max":0,"o":"m 190 824 b 310 938 265 824 310 875 b 190 1051 310 999 265 1051 b 71 938 115 1051 71 999 b 190 824 71 875 115 824 z m 79 0 l 303 0 l 303 722 l 79 722 z "},"ı":{"ha":365,"x_min":0,"x_max":0,"o":"m 71 0 l 294 0 l 294 722 l 71 722 z "},"í":{"ha":365,"x_min":0,"x_max":0,"o":"m 93 815 l 304 815 l 419 1044 l 208 1044 z m 71 0 l 294 0 l 294 722 l 71 722 z "},"ǐ":{"ha":365,"x_min":0,"x_max":0,"o":"m 251 1044 l 183 908 l 114 1044 l -93 1044 l 22 815 l 343 815 l 458 1044 z m 71 0 l 294 0 l 294 722 l 71 722 z "},"î":{"ha":365,"x_min":0,"x_max":0,"o":"m 183 950 l 251 814 l 458 814 l 343 1043 l 22 1043 l -93 814 l 114 814 z m 71 0 l 294 0 l 294 722 l 71 722 z "},"ï":{"ha":365,"x_min":0,"x_max":0,"o":"m -19 828 b 100 939 56 828 100 879 b -19 1049 100 999 56 1049 b -139 939 -94 1049 -139 999 b -19 828 -139 879 -94 828 z m 385 828 b 504 939 460 828 504 879 b 385 1049 504 999 460 1049 b 265 939 310 1049 265 999 b 385 828 265 879 310 828 z m 71 0 l 294 0 l 294 722 l 71 722 z "},"ì":{"ha":365,"x_min":0,"x_max":0,"o":"m 289 815 l 174 1044 l -37 1044 l 78 815 z m 71 0 l 294 0 l 294 722 l 71 722 z "},"ĳ":{"ha":760,"x_min":0,"x_max":0,"o":"m 190 824 b 310 938 265 824 310 875 b 190 1051 310 999 265 1051 b 71 938 115 1051 71 999 b 190 824 71 875 115 824 z m 571 822 b 690 936 646 822 690 874 b 571 1050 690 999 646 1050 b 451 936 496 1050 451 999 b 571 822 451 874 496 822 z m 79 0 l 303 0 l 303 722 l 79 722 z m 458 -215 l 682 -215 l 682 722 l 458 722 z "},"ī":{"ha":365,"x_min":0,"x_max":0,"o":"m -96 847 l 461 847 l 461 1044 l -96 1044 z m 71 0 l 294 0 l 294 722 l 71 722 z "},"į":{"ha":365,"x_min":0,"x_max":0,"o":"m 183 828 b 303 939 258 828 303 879 b 183 1049 303 999 258 1049 b 64 939 108 1049 64 999 b 183 828 64 879 108 828 z m 71 0 b -79 -192 -4 -33 -79 -90 b 117 -350 -79 -285 -18 -350 b 211 -335 158 -350 186 -344 l 211 -183 l 190 -185 b 103 -121 136 -187 103 -164 b 264 0 103 -75 139 -24 l 294 0 l 294 722 l 71 722 z "},"j":{"ha":381,"x_min":0,"x_max":0,"o":"m 190 822 b 310 936 265 822 310 874 b 190 1050 310 999 265 1050 b 71 936 115 1050 71 999 b 190 822 71 874 115 822 z m 78 -215 l 301 -215 l 301 722 l 78 722 z "},"k":{"ha":957,"x_min":0,"x_max":0,"o":"m 936 0 l 614 388 l 894 722 l 635 722 l 406 431 l 303 297 l 297 297 l 301 433 l 301 986 l 78 986 l 78 0 l 289 0 l 483 232 l 674 0 z "},"ķ":{"ha":957,"x_min":0,"x_max":0,"o":"m 614 388 l 894 722 l 635 722 l 406 431 l 303 297 l 297 297 l 301 433 l 301 986 l 78 986 l 78 0 l 289 0 l 483 232 l 674 0 l 936 0 z m 233 -410 l 440 -410 l 575 -42 l 368 -42 z "},"l":{"ha":379,"x_min":0,"x_max":0,"o":"m 78 0 l 301 0 l 301 986 l 78 986 z "},"ĺ":{"ha":379,"x_min":0,"x_max":0,"o":"m 100 1065 l 311 1065 l 426 1294 l 215 1294 z m 78 0 l 301 0 l 301 986 l 78 986 z "},"ľ":{"ha":379,"x_min":0,"x_max":0,"o":"m 258 1294 l 190 1158 l 121 1294 l -86 1294 l 29 1065 l 350 1065 l 465 1294 z m 78 0 l 301 0 l 301 986 l 78 986 z "},"ļ":{"ha":375,"x_min":0,"x_max":0,"o":"m 74 0 l 297 0 l 297 986 l 74 986 z m -60 -410 l 147 -410 l 282 -42 l 75 -42 z "},"ł":{"ha":474,"x_min":0,"x_max":0,"o":"m 515 678 l 356 663 l 356 986 l 132 986 l 132 639 l -42 622 l -42 447 l 132 464 l 132 0 l 356 0 l 356 488 l 515 503 z "},"m":{"ha":1439,"x_min":0,"x_max":0,"o":"m 1069 742 b 799 592 926 742 844 678 b 547 742 756 688 672 742 b 281 575 401 742 328 668 l 301 626 l 293 722 l 78 722 l 78 0 l 301 0 l 301 378 b 458 547 301 483 357 547 b 607 378 560 547 607 483 l 607 0 l 832 0 l 832 378 b 989 547 832 483 886 547 b 1138 378 1092 547 1138 483 l 1138 0 l 1361 0 l 1361 408 b 1069 742 1361 615 1271 742 z "},"n":{"ha":935,"x_min":0,"x_max":0,"o":"m 560 743 b 281 575 404 743 329 669 l 301 626 l 293 722 l 78 722 l 78 0 l 301 0 l 301 369 b 475 547 301 478 358 547 b 633 371 592 547 633 478 l 633 0 l 858 0 l 858 413 b 560 743 858 617 764 743 z "},"ń":{"ha":935,"x_min":0,"x_max":0,"o":"m 703 1044 l 492 1044 l 376 815 l 588 815 z m 560 743 b 281 575 404 743 329 669 l 301 626 l 293 722 l 78 722 l 78 0 l 301 0 l 301 369 b 475 547 301 478 358 547 b 633 371 592 547 633 478 l 633 0 l 858 0 l 858 413 b 560 743 858 617 764 743 z "},"ň":{"ha":935,"x_min":0,"x_max":0,"o":"m 307 815 l 628 815 l 743 1044 l 536 1044 l 468 908 l 399 1044 l 192 1044 z m 560 743 b 281 575 404 743 329 669 l 301 626 l 293 722 l 78 722 l 78 0 l 301 0 l 301 369 b 475 547 301 478 358 547 b 633 371 592 547 633 478 l 633 0 l 858 0 l 858 413 b 560 743 858 617 764 743 z "},"ņ":{"ha":935,"x_min":0,"x_max":0,"o":"m 560 743 b 281 575 404 743 329 669 l 301 626 l 293 722 l 78 722 l 78 0 l 301 0 l 301 369 b 475 547 301 478 358 547 b 633 371 592 547 633 478 l 633 0 l 858 0 l 858 413 b 560 743 858 617 764 743 z m 247 -410 l 453 -410 l 588 -42 l 382 -42 z "},"ŋ":{"ha":935,"x_min":0,"x_max":0,"o":"m 560 743 b 281 575 404 743 329 669 l 301 626 l 293 722 l 78 722 l 78 0 l 301 0 l 301 369 b 475 547 301 478 358 547 b 633 371 592 547 633 478 l 633 -215 l 858 -215 l 858 413 b 560 743 858 617 764 743 z "},"ñ":{"ha":935,"x_min":0,"x_max":0,"o":"m 604 881 b 767 832 651 881 713 869 l 767 1001 b 610 1049 718 1035 667 1049 b 328 986 486 1049 446 986 b 165 1035 279 986 219 997 l 165 864 b 322 818 214 832 265 818 b 604 881 446 818 489 881 z m 560 743 b 281 575 404 743 329 669 l 301 626 l 293 722 l 78 722 l 78 0 l 301 0 l 301 369 b 475 547 301 478 358 547 b 633 371 592 547 633 478 l 633 0 l 858 0 l 858 413 b 560 743 858 617 764 743 z "},"o":{"ha":889,"x_min":0,"x_max":0,"o":"m 444 -21 b 847 361 699 -21 847 147 b 444 743 847 575 699 743 b 43 361 192 743 43 575 b 444 -21 43 147 192 -21 z m 444 178 b 263 361 329 178 263 256 b 444 544 263 467 329 544 b 626 361 560 544 626 467 b 444 178 626 256 560 178 z "},"ó":{"ha":889,"x_min":0,"x_max":0,"o":"m 354 815 l 565 815 l 681 1044 l 469 1044 z m 444 -21 b 847 361 699 -21 847 147 b 444 743 847 575 699 743 b 43 361 192 743 43 575 b 444 -21 43 147 192 -21 z m 444 178 b 263 361 329 178 263 256 b 444 544 263 467 329 544 b 626 361 560 544 626 467 b 444 178 626 256 560 178 z "},"ǒ":{"ha":889,"x_min":0,"x_max":0,"o":"m 285 815 l 606 815 l 721 1044 l 514 1044 l 446 908 l 376 1044 l 169 1044 z m 444 743 b 43 361 192 743 43 575 b 444 -21 43 147 192 -21 b 847 361 699 -21 847 147 b 444 743 847 575 699 743 z m 444 178 b 263 361 329 178 263 256 b 444 544 263 467 329 544 b 626 361 560 544 626 467 b 444 178 626 256 560 178 z "},"ô":{"ha":889,"x_min":0,"x_max":0,"o":"m 446 950 l 514 814 l 721 814 l 606 1043 l 285 1043 l 169 814 l 376 814 z m 444 743 b 43 361 192 743 43 575 b 444 -21 43 147 192 -21 b 847 361 699 -21 847 147 b 444 743 847 575 699 743 z m 444 178 b 263 361 329 178 263 256 b 444 544 263 467 329 544 b 626 361 560 544 626 467 b 444 178 626 256 560 178 z "},"ö":{"ha":889,"x_min":0,"x_max":0,"o":"m 243 828 b 363 939 318 828 363 879 b 243 1049 363 999 318 1049 b 124 939 168 1049 124 999 b 243 828 124 879 168 828 z m 647 828 b 767 939 722 828 767 879 b 647 1049 767 999 722 1049 b 528 939 572 1049 528 999 b 647 828 528 879 572 828 z m 444 -21 b 847 361 699 -21 847 147 b 444 743 847 575 699 743 b 43 361 192 743 43 575 b 444 -21 43 147 192 -21 z m 444 178 b 263 361 329 178 263 256 b 444 544 263 467 329 544 b 626 361 560 544 626 467 b 444 178 626 256 560 178 z "},"ò":{"ha":889,"x_min":0,"x_max":0,"o":"m 551 815 l 436 1044 l 225 1044 l 340 815 z m 444 -21 b 847 361 699 -21 847 147 b 444 743 847 575 699 743 b 43 361 192 743 43 575 b 444 -21 43 147 192 -21 z m 444 178 b 263 361 329 178 263 256 b 444 544 263 467 329 544 b 626 361 560 544 626 467 b 444 178 626 256 560 178 z "},"ő":{"ha":889,"x_min":0,"x_max":0,"o":"m 208 788 l 419 788 l 535 1017 l 324 1017 z m 471 788 l 682 788 l 797 1017 l 586 1017 z m 444 -21 b 847 361 699 -21 847 147 b 444 743 847 575 699 743 b 43 361 192 743 43 575 b 444 -21 43 147 192 -21 z m 444 178 b 263 361 329 178 263 256 b 444 544 263 467 329 544 b 626 361 560 544 626 467 b 444 178 626 256 560 178 z "},"ō":{"ha":889,"x_min":0,"x_max":0,"o":"m 165 847 l 722 847 l 722 1044 l 165 1044 z m 444 -21 b 847 361 699 -21 847 147 b 444 743 847 575 699 743 b 43 361 192 743 43 575 b 444 -21 43 147 192 -21 z m 444 178 b 263 361 329 178 263 256 b 444 544 263 467 329 544 b 626 361 560 544 626 467 b 444 178 626 256 560 178 z "},"ø":{"ha":893,"x_min":0,"x_max":0,"o":"m 771 599 l 813 642 l 726 726 l 681 681 b 444 743 618 721 539 743 b 43 361 192 743 43 575 b 121 121 43 269 71 186 l 81 81 l 168 -4 l 213 40 b 444 -21 275 1 353 -21 b 847 361 699 -21 847 147 b 771 599 847 451 821 535 z m 263 361 b 444 544 263 467 329 544 b 528 528 476 544 504 539 l 278 278 b 263 361 268 303 263 331 z m 444 178 b 364 193 414 178 388 183 l 611 440 b 626 361 621 417 626 390 b 444 178 626 256 560 178 z "},"õ":{"ha":889,"x_min":0,"x_max":0,"o":"m 300 818 b 582 881 424 818 467 881 b 744 832 629 881 690 869 l 744 1001 b 588 1049 696 1035 644 1049 b 306 986 464 1049 424 986 b 143 1035 257 986 197 997 l 143 864 b 300 818 192 832 243 818 z m 444 -21 b 847 361 699 -21 847 147 b 444 743 847 575 699 743 b 43 361 192 743 43 575 b 444 -21 43 147 192 -21 z m 444 178 b 263 361 329 178 263 256 b 444 544 263 467 329 544 b 626 361 560 544 626 467 b 444 178 626 256 560 178 z "},"œ":{"ha":1463,"x_min":0,"x_max":0,"o":"m 854 294 l 1418 294 b 1029 743 1439 576 1283 743 b 736 638 903 743 804 703 b 444 743 668 703 568 743 b 43 361 192 743 43 575 b 444 -21 43 147 192 -21 b 736 85 568 -21 667 19 b 1028 -21 803 19 901 -21 b 1399 224 1249 -21 1376 101 l 1186 224 b 1040 150 1165 174 1111 150 b 854 294 929 150 872 204 z m 1029 579 b 1199 429 1122 579 1178 538 l 853 429 b 1029 579 869 528 926 579 z m 444 178 b 263 361 329 178 263 256 b 444 544 263 467 329 544 b 626 361 560 544 626 467 b 444 178 626 256 560 178 z "},"p":{"ha":936,"x_min":0,"x_max":0,"o":"m 539 742 b 261 571 428 742 335 697 l 301 647 l 297 722 l 78 722 l 78 -200 l 301 -200 l 301 89 b 539 -21 360 10 444 -21 b 894 361 756 -21 894 149 b 539 742 894 572 756 742 z m 486 175 b 299 361 371 175 299 253 b 486 547 299 469 371 547 b 672 361 601 547 672 469 b 486 175 672 253 601 175 z "},"þ":{"ha":936,"x_min":0,"x_max":0,"o":"m 539 742 b 261 571 428 742 335 697 l 301 647 l 301 986 l 78 986 l 78 -200 l 301 -200 l 301 89 b 539 -21 360 10 444 -21 b 894 361 756 -21 894 149 b 539 742 894 572 756 742 z m 486 175 b 299 361 371 175 299 253 b 486 547 299 469 371 547 b 672 361 601 547 672 469 b 486 175 672 253 601 175 z "},"q":{"ha":936,"x_min":0,"x_max":0,"o":"m 639 722 l 635 647 l 676 571 b 397 742 601 697 510 742 b 43 361 181 742 43 572 b 397 -21 43 149 181 -21 b 635 89 493 -21 576 10 l 635 -200 l 860 -200 l 860 722 z m 450 175 b 264 361 335 175 264 253 b 450 547 264 469 335 547 b 638 361 565 547 638 469 b 450 175 638 253 565 175 z "},"r":{"ha":849,"x_min":0,"x_max":0,"o":"m 529 743 b 283 582 394 743 329 674 l 301 626 l 293 722 l 78 722 l 78 0 l 301 0 l 301 382 b 450 547 301 481 347 547 b 583 400 553 547 583 481 l 583 383 l 792 383 l 792 439 b 529 743 792 621 708 743 z "},"ŕ":{"ha":849,"x_min":0,"x_max":0,"o":"m 656 1044 l 444 1044 l 329 815 l 540 815 z m 529 743 b 283 582 394 743 329 674 l 301 626 l 293 722 l 78 722 l 78 0 l 301 0 l 301 382 b 450 547 301 481 347 547 b 583 400 553 547 583 481 l 583 383 l 792 383 l 792 439 b 529 743 792 621 708 743 z "},"ř":{"ha":849,"x_min":0,"x_max":0,"o":"m 260 815 l 581 815 l 696 1044 l 489 1044 l 421 908 l 351 1044 l 144 1044 z m 529 743 b 283 582 394 743 329 674 l 301 626 l 293 722 l 78 722 l 78 0 l 301 0 l 301 382 b 450 547 301 481 347 547 b 583 400 553 547 583 481 l 583 383 l 792 383 l 792 439 b 529 743 792 621 708 743 z "},"ŗ":{"ha":849,"x_min":0,"x_max":0,"o":"m 529 743 b 283 582 394 743 329 674 l 301 626 l 293 722 l 78 722 l 78 0 l 301 0 l 301 382 b 450 547 301 481 347 547 b 583 400 553 547 583 481 l 583 383 l 792 383 l 792 439 b 529 743 792 621 708 743 z m -60 -410 l 146 -410 l 281 -42 l 75 -42 z "},"s":{"ha":801,"x_min":0,"x_max":0,"o":"m 392 -21 b 758 224 647 -21 758 64 b 521 435 758 367 675 421 l 354 450 b 268 514 294 456 268 474 b 396 581 268 563 314 581 b 535 506 485 581 525 558 l 736 506 b 403 743 725 707 563 743 b 50 507 160 743 50 661 b 286 290 50 369 132 304 l 453 275 b 538 213 510 269 538 254 b 399 144 538 168 504 144 b 246 219 307 144 256 163 l 43 219 b 392 -21 54 22 208 -21 z "},"ś":{"ha":801,"x_min":0,"x_max":0,"o":"m 314 815 l 525 815 l 640 1044 l 429 1044 z m 392 -21 b 758 224 647 -21 758 64 b 521 435 758 367 675 421 l 354 450 b 268 514 294 456 268 474 b 396 581 268 563 314 581 b 535 506 485 581 525 558 l 736 506 b 403 743 725 707 563 743 b 50 507 160 743 50 661 b 286 290 50 369 132 304 l 453 275 b 538 213 510 269 538 254 b 399 144 538 168 504 144 b 246 219 307 144 256 163 l 43 219 b 392 -21 54 22 208 -21 z "},"š":{"ha":801,"x_min":0,"x_max":0,"o":"m 244 815 l 565 815 l 681 1044 l 474 1044 l 406 908 l 336 1044 l 129 1044 z m 521 435 l 354 450 b 268 514 294 456 268 474 b 396 581 268 563 314 581 b 535 506 485 581 525 558 l 736 506 b 403 743 725 707 563 743 b 50 507 160 743 50 661 b 286 290 50 369 132 304 l 453 275 b 538 213 510 269 538 254 b 399 144 538 168 504 144 b 246 219 307 144 256 163 l 43 219 b 392 -21 54 22 208 -21 b 758 224 647 -21 758 64 b 521 435 758 367 675 421 z "},"ş":{"ha":801,"x_min":0,"x_max":0,"o":"m 758 224 b 521 435 758 367 675 421 l 354 450 b 268 514 294 456 268 474 b 396 581 268 563 314 581 b 535 506 485 581 525 558 l 736 506 b 403 743 725 707 563 743 b 50 507 160 743 50 661 b 286 290 50 369 132 304 l 453 275 b 538 213 510 269 538 254 b 399 144 538 168 504 144 b 246 219 307 144 256 163 l 43 219 b 347 -19 53 39 183 -12 l 276 -153 l 410 -153 b 453 -192 436 -153 453 -168 b 410 -235 453 -217 438 -235 b 371 -221 393 -235 382 -231 l 310 -299 b 424 -342 333 -325 374 -342 b 576 -194 517 -342 576 -283 b 440 -54 576 -110 519 -54 l 433 -54 l 454 -19 b 758 224 665 -6 758 78 z "},"ș":{"ha":801,"x_min":0,"x_max":0,"o":"m 392 -21 b 758 224 647 -21 758 64 b 521 435 758 367 675 421 l 354 450 b 268 514 294 456 268 474 b 396 581 268 563 314 581 b 535 506 485 581 525 558 l 736 506 b 403 743 725 707 563 743 b 50 507 160 743 50 661 b 286 290 50 369 132 304 l 453 275 b 538 213 510 269 538 254 b 399 144 538 168 504 144 b 246 219 307 144 256 163 l 43 219 b 392 -21 54 22 208 -21 z m 171 -410 l 378 -410 l 513 -42 l 306 -42 z "},"ß":{"ha":947,"x_min":0,"x_max":0,"o":"m 657 385 l 836 526 l 836 722 l 301 722 l 301 746 b 400 838 301 815 332 838 l 482 838 l 482 1021 l 360 1021 b 78 747 150 1021 78 913 l 78 0 l 301 0 l 301 539 l 603 539 l 401 382 l 401 229 l 504 229 b 676 100 629 229 676 179 b 501 -33 676 17 629 -33 l 374 -33 l 374 -221 l 528 -221 b 906 85 797 -221 906 -85 b 657 385 906 222 833 350 z "},"t":{"ha":676,"x_min":0,"x_max":0,"o":"m 626 532 l 626 722 l 425 722 l 425 972 l 201 972 l 201 722 l 42 722 l 42 532 l 201 532 l 201 256 b 488 -7 201 92 279 -7 l 626 -7 l 626 193 l 529 193 b 425 292 460 193 425 218 l 425 532 z "},"ŧ":{"ha":676,"x_min":0,"x_max":0,"o":"m 626 532 l 626 722 l 425 722 l 425 972 l 201 972 l 201 722 l 42 722 l 42 532 l 201 532 l 201 456 l 42 456 l 42 299 l 201 299 l 201 256 b 488 -7 201 92 279 -7 l 626 -7 l 626 193 l 529 193 b 425 292 460 193 425 218 l 425 299 l 626 299 l 626 456 l 425 456 l 425 532 z "},"ť":{"ha":676,"x_min":0,"x_max":0,"o":"m 156 1065 l 476 1065 l 592 1294 l 385 1294 l 317 1158 l 247 1294 l 40 1294 z m 626 532 l 626 722 l 425 722 l 425 972 l 201 972 l 201 722 l 42 722 l 42 532 l 201 532 l 201 256 b 488 -7 201 92 279 -7 l 626 -7 l 626 193 l 529 193 b 425 292 460 193 425 218 l 425 532 z "},"ţ":{"ha":676,"x_min":0,"x_max":0,"o":"m 626 532 l 626 722 l 425 722 l 425 972 l 201 972 l 201 722 l 42 722 l 42 532 l 201 532 l 201 256 b 332 19 201 142 239 58 l 328 19 l 236 -153 l 369 -153 b 413 -192 396 -153 413 -168 b 369 -235 413 -217 397 -235 b 331 -221 353 -235 342 -231 l 269 -299 b 383 -342 293 -325 333 -342 b 536 -194 476 -342 536 -283 b 400 -54 536 -110 479 -54 l 393 -54 l 422 -3 b 488 -7 443 -6 464 -7 l 626 -7 l 626 193 l 529 193 b 425 292 460 193 425 218 l 425 532 z "},"ț":{"ha":676,"x_min":0,"x_max":0,"o":"m 626 532 l 626 722 l 425 722 l 425 972 l 201 972 l 201 722 l 42 722 l 42 532 l 201 532 l 201 256 b 488 -7 201 92 279 -7 l 626 -7 l 626 193 l 529 193 b 425 292 460 193 425 218 l 425 532 z m 144 -410 l 350 -410 l 485 -42 l 279 -42 z "},"u":{"ha":936,"x_min":0,"x_max":0,"o":"m 633 722 l 633 353 b 460 175 633 244 576 175 b 301 351 343 175 301 244 l 301 722 l 78 722 l 78 310 b 375 -21 78 106 171 -21 b 654 147 531 -21 606 53 l 633 96 l 642 0 l 858 0 l 858 722 z "},"ú":{"ha":936,"x_min":0,"x_max":0,"o":"m 704 1044 l 493 1044 l 378 815 l 589 815 z m 633 722 l 633 353 b 460 175 633 244 576 175 b 301 351 343 175 301 244 l 301 722 l 78 722 l 78 310 b 375 -21 78 106 171 -21 b 654 147 531 -21 606 53 l 633 96 l 642 0 l 858 0 l 858 722 z "},"ŭ":{"ha":936,"x_min":0,"x_max":0,"o":"m 468 778 b 750 1044 672 778 758 878 l 556 1044 b 468 939 564 972 528 939 b 381 1044 407 939 372 972 l 185 1044 b 468 778 176 878 264 778 z m 633 722 l 633 353 b 460 175 633 244 576 175 b 301 351 343 175 301 244 l 301 722 l 78 722 l 78 310 b 375 -21 78 106 171 -21 b 654 147 531 -21 606 53 l 633 96 l 642 0 l 858 0 l 858 722 z "},"ǔ":{"ha":936,"x_min":0,"x_max":0,"o":"m 308 815 l 629 815 l 744 1044 l 538 1044 l 469 908 l 400 1044 l 193 1044 z m 633 722 l 633 353 b 460 175 633 244 576 175 b 301 351 343 175 301 244 l 301 722 l 78 722 l 78 310 b 375 -21 78 106 171 -21 b 654 147 531 -21 606 53 l 633 96 l 642 0 l 858 0 l 858 722 z "},"û":{"ha":936,"x_min":0,"x_max":0,"o":"m 469 950 l 538 814 l 744 814 l 629 1043 l 308 1043 l 193 814 l 400 814 z m 633 722 l 633 353 b 460 175 633 244 576 175 b 301 351 343 175 301 244 l 301 722 l 78 722 l 78 310 b 375 -21 78 106 171 -21 b 654 147 531 -21 606 53 l 633 96 l 642 0 l 858 0 l 858 722 z "},"ü":{"ha":936,"x_min":0,"x_max":0,"o":"m 265 828 b 385 939 340 828 385 879 b 265 1049 385 999 340 1049 b 146 939 190 1049 146 999 b 265 828 146 879 190 828 z m 669 828 b 789 939 744 828 789 879 b 669 1049 789 999 744 1049 b 550 939 594 1049 550 999 b 669 828 550 879 594 828 z m 633 722 l 633 353 b 460 175 633 244 576 175 b 301 351 343 175 301 244 l 301 722 l 78 722 l 78 310 b 375 -21 78 106 171 -21 b 654 147 531 -21 606 53 l 633 96 l 642 0 l 858 0 l 858 722 z "},"ù":{"ha":936,"x_min":0,"x_max":0,"o":"m 575 815 l 460 1044 l 249 1044 l 364 815 z m 633 722 l 633 353 b 460 175 633 244 576 175 b 301 351 343 175 301 244 l 301 722 l 78 722 l 78 310 b 375 -21 78 106 171 -21 b 654 147 531 -21 606 53 l 633 96 l 642 0 l 858 0 l 858 722 z "},"ű":{"ha":936,"x_min":0,"x_max":0,"o":"m 557 1017 l 346 1017 l 231 788 l 442 788 z m 704 788 l 819 1017 l 608 1017 l 493 788 z m 633 722 l 633 353 b 460 175 633 244 576 175 b 301 351 343 175 301 244 l 301 722 l 78 722 l 78 310 b 375 -21 78 106 171 -21 b 654 147 531 -21 606 53 l 633 96 l 642 0 l 858 0 l 858 722 z "},"ū":{"ha":936,"x_min":0,"x_max":0,"o":"m 746 1044 l 189 1044 l 189 847 l 746 847 z m 633 722 l 633 353 b 460 175 633 244 576 175 b 301 351 343 175 301 244 l 301 722 l 78 722 l 78 310 b 375 -21 78 106 171 -21 b 654 147 531 -21 606 53 l 633 96 l 642 0 l 858 0 l 858 722 z "},"ų":{"ha":936,"x_min":0,"x_max":0,"o":"m 633 722 l 633 353 b 460 175 633 244 576 175 b 301 351 343 175 301 244 l 301 722 l 78 722 l 78 310 b 375 -21 78 106 171 -21 b 654 147 531 -21 606 53 l 633 96 l 640 13 b 458 -192 556 -18 458 -76 b 654 -350 458 -285 519 -350 b 749 -335 696 -350 724 -344 l 749 -183 l 728 -185 b 640 -121 674 -187 640 -164 b 801 0 640 -75 676 -24 l 858 0 l 858 722 z "},"ů":{"ha":936,"x_min":0,"x_max":0,"o":"m 467 785 b 613 926 558 785 613 849 b 467 1067 613 1003 558 1067 b 322 926 376 1067 322 1003 b 467 785 322 849 376 785 z m 467 968 b 511 926 496 968 511 950 b 467 883 511 901 496 883 b 424 926 439 883 424 901 b 467 968 424 950 439 968 z m 633 722 l 633 353 b 460 175 633 244 576 175 b 301 351 343 175 301 244 l 301 722 l 78 722 l 78 310 b 375 -21 78 106 171 -21 b 654 147 531 -21 606 53 l 633 96 l 642 0 l 858 0 l 858 722 z "},"v":{"ha":885,"x_min":0,"x_max":0,"o":"m 322 0 l 561 0 l 869 722 l 638 722 l 446 250 l 438 250 l 247 722 l 15 722 z "},"w":{"ha":1372,"x_min":0,"x_max":0,"o":"m 251 0 l 504 0 l 686 486 l 868 0 l 1119 0 l 1357 722 l 1126 722 l 985 236 l 804 722 l 568 722 l 388 236 l 246 722 l 15 722 z "},"ẃ":{"ha":1372,"x_min":0,"x_max":0,"o":"m 596 815 l 807 815 l 922 1044 l 711 1044 z m 251 0 l 504 0 l 686 486 l 868 0 l 1119 0 l 1357 722 l 1126 722 l 985 236 l 804 722 l 568 722 l 388 236 l 246 722 l 15 722 z "},"ŵ":{"ha":1372,"x_min":0,"x_max":0,"o":"m 688 950 l 756 814 l 963 814 l 847 1043 l 526 1043 l 411 814 l 618 814 z m 1126 722 l 985 236 l 804 722 l 568 722 l 388 236 l 246 722 l 15 722 l 251 0 l 504 0 l 686 486 l 868 0 l 1119 0 l 1357 722 z "},"ẅ":{"ha":1372,"x_min":0,"x_max":0,"o":"m 483 828 b 603 939 558 828 603 879 b 483 1049 603 999 558 1049 b 364 939 408 1049 364 999 b 483 828 364 879 408 828 z m 888 828 b 1007 939 963 828 1007 879 b 888 1049 1007 999 963 1049 b 768 939 813 1049 768 999 b 888 828 768 879 813 828 z m 251 0 l 504 0 l 686 486 l 868 0 l 1119 0 l 1357 722 l 1126 722 l 985 236 l 804 722 l 568 722 l 388 236 l 246 722 l 15 722 z "},"ẁ":{"ha":1372,"x_min":0,"x_max":0,"o":"m 793 815 l 678 1044 l 467 1044 l 582 815 z m 251 0 l 504 0 l 686 486 l 868 0 l 1119 0 l 1357 722 l 1126 722 l 985 236 l 804 722 l 568 722 l 388 236 l 246 722 l 15 722 z "},"x":{"ha":889,"x_min":0,"x_max":0,"o":"m 22 0 l 282 0 l 444 208 l 606 0 l 867 0 l 572 364 l 861 722 l 601 722 l 444 521 l 286 722 l 28 722 l 317 364 z "},"y":{"ha":890,"x_min":0,"x_max":0,"o":"m 247 -200 l 476 -200 l 875 722 l 642 722 l 449 249 l 440 249 l 249 722 l 15 722 l 292 86 l 333 -4 z "},"ý":{"ha":890,"x_min":0,"x_max":0,"o":"m 354 815 l 565 815 l 681 1044 l 469 1044 z m 247 -200 l 476 -200 l 875 722 l 642 722 l 449 249 l 440 249 l 249 722 l 15 722 l 292 86 l 333 -4 z "},"ŷ":{"ha":890,"x_min":0,"x_max":0,"o":"m 446 950 l 514 814 l 721 814 l 606 1043 l 285 1043 l 169 814 l 376 814 z m 642 722 l 449 249 l 440 249 l 249 722 l 15 722 l 292 86 l 333 -4 l 247 -200 l 476 -200 l 875 722 z "},"ÿ":{"ha":890,"x_min":0,"x_max":0,"o":"m 243 828 b 363 939 318 828 363 879 b 243 1049 363 999 318 1049 b 124 939 168 1049 124 999 b 243 828 124 879 168 828 z m 647 828 b 767 939 722 828 767 879 b 647 1049 767 999 722 1049 b 528 939 572 1049 528 999 b 647 828 528 879 572 828 z m 247 -200 l 476 -200 l 875 722 l 642 722 l 449 249 l 440 249 l 249 722 l 15 722 l 292 86 l 333 -4 z "},"ỳ":{"ha":890,"x_min":0,"x_max":0,"o":"m 551 815 l 436 1044 l 225 1044 l 340 815 z m 247 -200 l 476 -200 l 875 722 l 642 722 l 449 249 l 440 249 l 249 722 l 15 722 l 292 86 l 333 -4 z "},"z":{"ha":790,"x_min":0,"x_max":0,"o":"m 56 0 l 742 0 l 742 190 l 338 190 l 735 532 l 735 722 l 65 722 l 65 532 l 453 532 l 56 190 z "},"ź":{"ha":790,"x_min":0,"x_max":0,"o":"m 306 815 l 517 815 l 632 1044 l 421 1044 z m 56 0 l 742 0 l 742 190 l 338 190 l 735 532 l 735 722 l 65 722 l 65 532 l 453 532 l 56 190 z "},"ž":{"ha":790,"x_min":0,"x_max":0,"o":"m 236 815 l 557 815 l 672 1044 l 465 1044 l 397 908 l 328 1044 l 121 1044 z m 338 190 l 735 532 l 735 722 l 65 722 l 65 532 l 453 532 l 56 190 l 56 0 l 742 0 l 742 190 z "},"ż":{"ha":790,"x_min":0,"x_max":0,"o":"m 396 828 b 515 939 471 828 515 879 b 396 1049 515 999 471 1049 b 276 939 321 1049 276 999 b 396 828 276 879 321 828 z m 56 0 l 742 0 l 742 190 l 338 190 l 735 532 l 735 722 l 65 722 l 65 532 l 453 532 l 56 190 z "},"⁄":{"ha":754,"x_min":0,"x_max":0,"o":"m 29 0 l 265 0 l 726 972 l 490 972 z "},".":{"ha":317,"x_min":0,"x_max":0,"o":"m 158 -7 b 281 113 235 -7 281 47 b 158 232 281 178 235 232 b 36 113 82 232 36 178 b 158 -7 36 47 82 -7 z "},",":{"ha":385,"x_min":0,"x_max":0,"o":"m 22 -139 l 228 -139 l 363 229 l 157 229 z "},":":{"ha":317,"x_min":0,"x_max":0,"o":"m 158 504 b 281 624 235 504 281 558 b 158 743 281 689 235 743 b 36 624 82 743 36 689 b 158 504 36 558 82 504 z m 158 -7 b 281 113 235 -7 281 47 b 158 232 281 178 235 232 b 36 113 82 232 36 178 b 158 -7 36 47 82 -7 z "},";":{"ha":413,"x_min":0,"x_max":0,"o":"m 268 504 b 390 624 344 504 390 558 b 268 743 390 689 344 743 b 146 624 192 743 146 689 b 268 504 146 558 192 504 z m 22 -139 l 228 -139 l 363 229 l 157 229 z "},"…":{"ha":947,"x_min":0,"x_max":0,"o":"m 158 -7 b 281 113 235 -7 281 47 b 158 232 281 178 235 232 b 36 113 82 232 36 178 b 158 -7 36 47 82 -7 z m 474 -7 b 596 113 550 -7 596 47 b 474 232 596 178 550 232 b 351 113 397 232 351 178 b 474 -7 351 47 397 -7 z m 789 -7 b 911 113 865 -7 911 47 b 789 232 911 178 865 232 b 667 113 713 232 667 178 b 789 -7 667 47 713 -7 z "},"!":{"ha":414,"x_min":0,"x_max":0,"o":"m 97 303 l 314 303 l 321 972 l 90 972 z m 207 -7 b 329 113 283 -7 329 47 b 207 232 329 178 283 232 b 85 113 131 232 85 178 b 207 -7 85 47 131 -7 z "},"¡":{"ha":414,"x_min":0,"x_max":0,"o":"m 207 743 b 85 624 131 743 85 689 b 207 504 85 558 131 504 b 329 624 283 504 329 558 b 207 743 329 689 283 743 z m 97 433 l 90 -236 l 321 -236 l 314 433 z "},"?":{"ha":917,"x_min":0,"x_max":0,"o":"m 329 293 l 556 293 b 647 429 554 350 563 392 l 696 450 b 868 683 832 508 868 581 b 467 993 868 861 761 993 b 50 611 175 993 39 865 l 272 611 b 467 792 264 747 342 792 b 636 676 588 792 636 749 b 526 561 636 624 610 592 l 492 549 b 329 293 338 493 322 419 z m 443 -7 b 565 113 519 -7 565 47 b 443 232 565 178 519 232 b 321 113 367 232 321 178 b 443 -7 321 47 367 -7 z "},"¿":{"ha":917,"x_min":0,"x_max":0,"o":"m 474 743 b 351 624 399 743 351 689 b 474 504 351 558 399 504 b 597 624 550 504 597 558 b 474 743 597 689 550 743 z m 588 443 l 361 443 b 269 307 363 386 354 344 l 221 286 b 50 53 85 228 50 156 b 450 -257 50 -125 156 -257 b 868 125 742 -257 879 -129 l 644 125 b 450 -56 653 -11 576 -56 b 281 60 329 -56 281 -12 b 390 175 281 113 307 144 l 425 188 b 588 443 579 243 594 317 z "},"·":{"ha":383,"x_min":0,"x_max":0,"o":"m 192 274 b 314 393 268 274 314 328 b 192 513 314 458 268 513 b 69 393 115 513 69 458 b 192 274 69 328 115 274 z "},"•":{"ha":554,"x_min":0,"x_max":0,"o":"m 276 257 b 415 390 364 257 415 318 b 276 524 415 463 364 524 b 139 390 189 524 139 463 b 276 257 139 318 189 257 z "},"*":{"ha":892,"x_min":0,"x_max":0,"o":"m 303 247 l 446 442 l 590 247 l 765 374 l 619 567 l 850 640 l 783 846 l 557 769 l 558 1008 l 333 1008 l 335 769 l 110 846 l 43 640 l 272 567 l 126 374 z "},"#":{"ha":1156,"x_min":0,"x_max":0,"o":"m 1069 576 l 1128 761 l 986 761 l 1054 972 l 829 972 l 761 761 l 572 761 l 640 972 l 417 972 l 349 761 l 203 761 l 144 576 l 289 576 l 232 399 l 88 399 l 29 214 l 172 214 l 103 0 l 326 0 l 396 214 l 585 214 l 515 0 l 740 0 l 810 214 l 953 214 l 1011 399 l 869 399 l 926 576 z m 644 399 l 456 399 l 513 576 l 701 576 z "},"/":{"ha":710,"x_min":0,"x_max":0,"o":"m 29 0 l 253 0 l 681 972 l 457 972 z "},"\\":{"ha":710,"x_min":0,"x_max":0,"o":"m 681 0 l 253 972 l 29 972 l 457 0 z "},"(":{"ha":633,"x_min":0,"x_max":0,"o":"m 496 -192 l 578 -192 l 578 14 l 510 14 b 313 297 338 14 313 119 l 313 669 b 510 961 313 854 338 961 l 578 961 l 578 1167 l 496 1167 b 82 676 167 1167 82 965 l 82 290 b 496 -192 82 10 167 -192 z "},")":{"ha":636,"x_min":0,"x_max":0,"o":"m 138 -192 b 551 290 467 -192 551 10 l 551 676 b 138 1167 551 965 467 1167 l 56 1167 l 56 961 l 124 961 b 321 669 297 961 321 854 l 321 297 b 124 14 321 119 297 14 l 56 14 l 56 -192 z "},"{":{"ha":711,"x_min":0,"x_max":0,"o":"m 669 901 l 669 1110 l 181 1110 l 181 601 l 42 601 l 42 379 l 181 379 l 181 -129 l 669 -129 l 669 79 l 411 79 l 411 901 z "},"}":{"ha":711,"x_min":0,"x_max":0,"o":"m 669 601 l 532 601 l 532 1110 l 42 1110 l 42 901 l 301 901 l 301 79 l 42 79 l 42 -129 l 532 -129 l 532 379 l 669 379 z "},"[":{"ha":615,"x_min":0,"x_max":0,"o":"m 85 -129 l 574 -129 l 574 79 l 315 79 l 315 901 l 574 901 l 574 1110 l 85 1110 z "},"]":{"ha":615,"x_min":0,"x_max":0,"o":"m 532 -129 l 532 1110 l 42 1110 l 42 901 l 301 901 l 301 79 l 42 79 l 42 -129 z "},"-":{"ha":574,"x_min":0,"x_max":0,"o":"m 36 264 l 538 264 l 538 460 l 36 460 z "},"–":{"ha":1024,"x_min":0,"x_max":0,"o":"m 35 264 l 989 264 l 989 460 l 35 460 z "},"—":{"ha":1350,"x_min":0,"x_max":0,"o":"m 36 264 l 1314 264 l 1314 460 l 36 460 z "},"_":{"ha":629,"x_min":0,"x_max":0,"o":"m 36 -197 l 593 -197 l 593 0 l 36 0 z "},"‚":{"ha":297,"x_min":0,"x_max":0,"o":"m 132 -119 b 275 90 217 -76 275 4 l 275 101 b 146 232 275 171 226 232 b 22 113 71 232 22 179 b 133 -4 22 51 64 1 z "},"„":{"ha":608,"x_min":0,"x_max":0,"o":"m 132 -119 b 275 90 217 -76 275 4 l 275 101 b 146 232 275 171 226 232 b 22 113 71 232 22 179 b 133 -4 22 51 64 1 z m 444 -119 b 588 90 528 -76 588 4 l 588 101 b 458 232 588 171 538 232 b 333 113 383 232 333 179 b 446 -4 333 51 376 1 z "},"“":{"ha":650,"x_min":0,"x_max":0,"o":"m 192 983 b 50 774 108 940 50 860 l 50 763 b 179 632 50 693 99 632 b 303 751 254 632 303 685 b 190 868 303 813 261 863 z m 504 983 b 361 774 421 940 361 860 l 361 763 b 492 632 361 693 411 632 b 615 751 565 632 615 685 b 503 868 615 813 572 863 z "},"”":{"ha":650,"x_min":0,"x_max":0,"o":"m 146 632 b 289 842 231 675 289 756 l 289 853 b 160 983 289 922 240 983 b 36 864 85 983 36 931 b 147 746 36 801 78 751 z m 458 632 b 601 842 542 675 601 756 l 601 853 b 472 983 601 922 551 983 b 347 864 397 983 347 931 b 460 746 347 801 390 751 z "},"‘":{"ha":339,"x_min":0,"x_max":0,"o":"m 192 983 b 50 774 108 940 50 860 l 50 763 b 179 632 50 693 99 632 b 303 751 254 632 303 685 b 190 868 303 813 261 863 z "},"’":{"ha":339,"x_min":0,"x_max":0,"o":"m 146 632 b 289 842 231 675 289 756 l 289 853 b 160 983 289 922 240 983 b 36 864 85 983 36 931 b 147 746 36 801 78 751 z "},"«":{"ha":1075,"x_min":0,"x_max":0,"o":"m 425 4 l 529 161 l 235 375 l 529 589 l 425 746 l 42 465 l 42 285 z m 929 4 l 1033 161 l 739 375 l 1033 589 l 929 746 l 546 465 l 546 285 z "},"»":{"ha":1075,"x_min":0,"x_max":0,"o":"m 146 4 l 529 285 l 529 465 l 146 746 l 42 589 l 336 375 l 42 161 z m 649 4 l 1033 285 l 1033 465 l 649 746 l 546 589 l 840 375 l 546 161 z "},"‹":{"ha":571,"x_min":0,"x_max":0,"o":"m 425 4 l 529 161 l 235 375 l 529 589 l 425 746 l 42 465 l 42 285 z "},"›":{"ha":571,"x_min":0,"x_max":0,"o":"m 146 4 l 529 285 l 529 465 l 146 746 l 42 589 l 336 375 l 42 161 z "},"\"":{"ha":549,"x_min":0,"x_max":0,"o":"m 33 546 l 224 546 l 235 972 l 22 972 z m 324 546 l 515 546 l 526 972 l 313 972 z "},"'":{"ha":257,"x_min":0,"x_max":0,"o":"m 33 546 l 224 546 l 235 972 l 22 972 z "},"¢":{"ha":867,"x_min":0,"x_max":0,"o":"m 443 293 b 264 476 329 293 264 369 b 443 661 264 583 329 661 b 604 550 526 661 586 621 l 824 550 b 636 819 810 671 744 768 l 674 956 l 494 1003 l 456 858 l 443 858 b 43 476 182 858 43 689 b 258 129 43 321 117 189 l 224 -4 l 403 -50 l 442 94 l 443 94 b 824 404 668 94 804 222 l 604 404 b 443 293 586 332 526 293 z "},"¤":{"ha":957,"x_min":0,"x_max":0,"o":"m 864 361 b 825 529 864 421 850 479 l 914 618 l 753 778 l 661 686 b 478 725 610 711 547 725 b 296 686 408 725 347 711 l 204 778 l 43 618 l 132 529 b 93 361 107 479 93 421 b 132 193 93 301 107 243 l 43 104 l 204 -56 l 296 36 b 478 -3 347 11 408 -3 b 661 36 547 -3 610 11 l 753 -56 l 914 104 l 825 193 b 864 361 850 243 864 301 z m 310 361 b 478 531 310 458 372 531 b 647 361 585 531 647 458 b 478 192 647 264 585 192 b 310 361 372 192 310 264 z "},"$":{"ha":794,"x_min":0,"x_max":0,"o":"m 514 550 l 353 565 b 268 629 294 571 268 589 b 393 696 268 678 313 696 b 528 622 479 696 518 674 l 724 622 b 586 829 717 738 663 799 l 619 956 l 440 1003 l 401 858 l 399 858 b 57 622 163 858 57 778 b 286 407 57 486 136 421 l 447 392 b 531 328 504 385 531 369 b 396 261 531 283 499 261 b 247 336 306 261 257 278 l 50 336 b 203 119 57 214 117 151 l 171 -4 l 350 -50 l 389 94 b 744 340 636 94 744 181 b 514 550 744 483 664 536 z "},"€":{"ha":1190,"x_min":0,"x_max":0,"o":"m 718 665 l 403 665 b 647 783 451 739 533 783 b 908 607 772 783 865 738 l 1133 607 b 647 993 1094 851 915 993 b 150 665 390 993 215 858 l 50 665 l 50 507 l 718 507 z m 647 189 b 403 308 532 189 450 235 l 718 308 l 718 467 l 50 467 l 50 308 l 149 308 b 647 -21 214 115 389 -21 b 1133 365 915 -21 1094 121 l 908 365 b 647 189 865 235 772 189 z "},"£":{"ha":929,"x_min":0,"x_max":0,"o":"m 881 611 b 479 993 892 865 749 993 b 86 692 213 993 86 867 b 136 489 86 617 108 550 l 67 482 l 67 322 l 215 322 b 228 258 222 300 228 279 b 139 233 228 211 201 194 l 50 71 b 269 -1 122 18 188 -1 b 608 49 400 -1 461 49 b 876 0 699 49 792 31 l 876 206 b 624 251 801 232 715 251 b 356 193 547 251 451 239 b 419 303 403 218 419 244 l 419 322 l 781 322 l 781 503 l 361 503 b 315 646 338 550 315 593 b 483 783 315 738 383 783 b 653 611 581 783 663 739 z "},"¥":{"ha":1144,"x_min":0,"x_max":0,"o":"m 1122 972 l 879 972 l 578 461 l 567 461 l 265 972 l 22 972 l 328 454 l 118 454 l 118 290 l 1026 290 l 1026 454 l 817 454 z m 118 83 l 457 83 l 457 0 l 688 0 l 688 83 l 1026 83 l 1026 247 l 118 247 z "},"+":{"ha":939,"x_min":0,"x_max":0,"o":"m 904 583 l 574 583 l 574 919 l 365 919 l 365 583 l 36 583 l 36 388 l 365 388 l 365 51 l 575 51 l 575 388 l 904 388 z "},"−":{"ha":978,"x_min":0,"x_max":0,"o":"m 35 264 l 943 264 l 943 460 l 35 460 z "},"×":{"ha":889,"x_min":0,"x_max":0,"o":"m 22 0 l 282 0 l 444 208 l 606 0 l 867 0 l 572 364 l 861 722 l 601 722 l 444 521 l 286 722 l 28 722 l 317 364 z "},"÷":{"ha":978,"x_min":0,"x_max":0,"o":"m 489 606 b 607 721 563 606 607 658 b 489 836 607 783 563 836 b 371 721 414 836 371 783 b 489 606 371 658 414 606 z m 35 264 l 943 264 l 943 460 l 35 460 z m 489 -114 b 607 1 563 -114 607 -61 b 489 117 607 64 563 117 b 371 1 414 117 371 64 b 489 -114 371 -61 414 -114 z "},"=":{"ha":978,"x_min":0,"x_max":0,"o":"m 35 465 l 943 465 l 943 663 l 35 663 z m 35 60 l 943 60 l 943 257 l 35 257 z "},"≠":{"ha":978,"x_min":0,"x_max":0,"o":"m 943 465 l 943 663 l 733 663 l 815 847 l 592 847 l 510 663 l 35 663 l 35 465 l 424 465 l 332 257 l 35 257 l 35 60 l 246 60 l 164 -125 l 388 -125 l 469 60 l 943 60 l 943 257 l 556 257 l 647 465 z "},">":{"ha":939,"x_min":0,"x_max":0,"o":"m 36 36 l 904 258 l 904 461 l 36 683 l 36 476 l 578 360 l 36 243 z "},"<":{"ha":939,"x_min":0,"x_max":0,"o":"m 904 36 l 904 243 l 363 360 l 904 476 l 904 683 l 36 461 l 36 258 z "},"≥":{"ha":939,"x_min":0,"x_max":0,"o":"m 36 190 l 904 413 l 904 615 l 36 838 l 36 631 l 578 514 l 36 397 z m 36 -99 l 904 -99 l 904 97 l 36 97 z "},"≤":{"ha":939,"x_min":0,"x_max":0,"o":"m 904 190 l 904 397 l 363 514 l 904 631 l 904 838 l 36 615 l 36 413 z m 903 -99 l 903 97 l 36 97 l 36 -99 z "},"±":{"ha":940,"x_min":0,"x_max":0,"o":"m 575 692 l 575 1028 l 367 1028 l 367 692 l 38 692 l 38 494 l 367 494 l 367 158 l 576 158 l 576 494 l 906 494 l 906 692 z m 36 -101 l 904 -101 l 904 94 l 36 94 z "},"≈":{"ha":944,"x_min":0,"x_max":0,"o":"m 274 404 b 661 472 443 404 499 472 b 903 424 731 472 819 460 l 903 628 b 671 674 829 660 747 674 b 283 606 501 674 446 606 b 42 654 214 606 125 618 l 42 450 b 274 404 115 418 197 404 z m 274 47 b 661 115 443 47 499 115 b 903 67 731 115 819 103 l 903 271 b 671 317 829 303 747 317 b 283 249 501 317 446 249 b 42 297 214 249 125 261 l 42 93 b 274 47 115 61 197 47 z "},"~":{"ha":944,"x_min":0,"x_max":0,"o":"m 274 226 b 661 294 443 226 499 294 b 903 246 731 294 819 282 l 903 449 b 671 494 829 481 747 494 b 283 426 501 494 446 426 b 42 475 214 426 125 439 l 42 272 b 274 226 115 240 197 226 z "},"¬":{"ha":978,"x_min":0,"x_max":0,"o":"m 943 625 l 35 625 l 35 428 l 719 428 l 719 89 l 943 89 z "},"^":{"ha":925,"x_min":0,"x_max":0,"o":"m 211 358 l 463 724 l 714 358 l 890 490 l 553 972 l 374 972 l 35 490 z "},"∅":{"ha":1001,"x_min":0,"x_max":0,"o":"m 960 743 l 883 821 l 740 678 b 500 743 676 719 596 743 b 97 361 247 743 97 575 b 181 115 97 267 126 182 l 43 -22 l 119 -100 l 263 43 b 500 -21 325 3 406 -21 b 901 361 753 -21 901 147 b 821 604 901 454 874 539 z m 317 361 b 500 544 317 467 385 544 b 589 525 533 544 564 538 l 336 272 b 317 361 324 297 317 328 z m 682 361 b 500 178 682 256 615 178 b 414 196 467 178 439 183 l 664 447 b 682 361 676 422 682 393 z "},"∞":{"ha":1740,"x_min":0,"x_max":0,"o":"m 1294 743 b 813 443 1057 743 928 589 b 449 743 786 624 656 743 b 43 358 199 743 43 568 b 446 -21 43 153 193 -21 b 928 281 683 -21 813 133 b 1292 -21 954 99 1083 -21 b 1697 364 1542 -21 1697 154 b 1294 743 1697 569 1547 743 z m 460 183 b 269 363 339 183 269 260 b 449 539 269 463 336 539 b 611 400 528 539 594 500 l 779 400 b 460 183 686 285 597 183 z m 1292 183 b 1129 322 1211 183 1146 222 l 961 322 b 1281 539 1054 438 1143 539 b 1471 360 1401 539 1471 463 b 1292 183 1471 260 1404 183 z "},"∫":{"ha":669,"x_min":0,"x_max":0,"o":"m 42 -278 l 165 -278 b 447 -4 374 -278 447 -169 l 447 746 b 544 838 447 815 478 838 l 628 838 l 628 1021 l 504 1021 b 224 747 296 1021 224 913 l 224 -3 b 125 -94 224 -72 193 -94 l 42 -94 z "},"∏":{"ha":1103,"x_min":0,"x_max":0,"o":"m 85 972 l 85 0 l 315 0 l 315 764 l 788 764 l 788 0 l 1018 0 l 1018 972 z "},"∑":{"ha":1015,"x_min":0,"x_max":0,"o":"m 85 0 l 932 0 l 932 208 l 383 208 l 383 219 l 672 481 l 672 492 l 383 753 l 383 764 l 932 764 l 932 972 l 85 972 l 85 754 l 375 492 l 375 481 l 85 218 z "},"√":{"ha":922,"x_min":0,"x_max":0,"o":"m 660 972 l 350 257 l 260 468 l 22 468 l 229 0 l 472 0 l 900 972 z "},"∂":{"ha":831,"x_min":0,"x_max":0,"o":"m 688 575 l 376 972 l 115 972 l 374 639 b 43 318 158 636 43 492 b 415 -21 43 131 175 -21 b 788 318 656 -21 788 131 b 688 575 788 404 761 479 z m 415 189 b 274 318 322 189 274 244 b 415 449 274 392 322 449 b 557 318 508 449 557 392 b 415 189 557 244 508 189 z "},"%":{"ha":910,"x_min":0,"x_max":0,"o":"m 194 713 b 338 853 285 713 338 776 b 194 993 338 929 285 993 b 50 853 103 993 50 929 b 194 713 50 776 103 713 z m 50 0 l 286 0 l 860 972 l 624 972 z m 715 -19 b 860 121 807 -19 860 44 b 715 261 860 197 807 261 b 572 121 625 261 572 197 b 715 -19 572 44 625 -19 z "},"‰":{"ha":1271,"x_min":0,"x_max":0,"o":"m 194 713 b 338 853 285 713 338 776 b 194 993 338 929 285 993 b 50 853 103 993 50 929 b 194 713 50 776 103 713 z m 50 0 l 286 0 l 860 972 l 624 972 z m 715 -19 b 860 121 807 -19 860 44 b 715 261 860 197 807 261 b 572 121 625 261 572 197 b 715 -19 572 44 625 -19 z m 1078 -19 b 1222 121 1168 -19 1222 44 b 1078 261 1222 197 1168 261 b 933 121 986 261 933 197 b 1078 -19 933 44 986 -19 z "},"◊":{"ha":893,"x_min":0,"x_max":0,"o":"m 447 -33 l 851 364 l 447 761 l 43 364 z m 447 215 l 296 364 l 447 513 l 599 364 z "},"@":{"ha":907,"x_min":0,"x_max":0,"o":"m 453 -21 b 790 151 613 -21 725 49 b 717 117 768 125 749 117 b 619 204 664 117 619 142 l 619 228 b 432 113 585 144 515 113 b 183 361 278 113 183 222 b 424 610 183 500 278 610 b 610 506 507 610 571 572 l 604 532 l 617 596 l 701 596 l 701 271 b 764 200 701 221 729 200 b 857 363 829 200 857 275 b 453 743 857 569 704 743 b 50 361 201 743 50 569 b 453 -21 50 153 201 -21 z m 439 203 b 601 361 543 203 601 272 b 439 519 601 450 543 519 b 285 361 338 519 285 451 b 439 203 285 271 338 203 z "},"&":{"ha":1083,"x_min":0,"x_max":0,"o":"m 1033 368 b 1003 501 1033 407 1028 464 l 793 501 b 819 388 814 464 819 417 b 792 285 819 349 810 314 l 463 779 l 747 779 l 747 972 l 108 972 l 275 722 b 50 383 133 664 50 542 b 500 -21 50 153 225 -21 b 728 43 597 -21 674 1 l 771 -21 l 996 -21 l 915 100 b 1033 368 992 169 1033 264 z m 538 171 b 276 385 365 171 276 258 b 385 558 276 468 317 528 l 636 182 b 538 171 606 175 574 171 z "},"¶":{"ha":1158,"x_min":0,"x_max":0,"o":"m 544 0 l 1115 0 l 1115 208 l 983 208 l 983 764 l 1115 764 l 1115 972 l 544 972 b 50 486 239 972 50 774 b 544 0 50 199 240 0 z m 614 208 l 614 764 l 753 764 l 753 208 z "},"§":{"ha":875,"x_min":0,"x_max":0,"o":"m 429 -42 b 785 194 661 -42 785 42 b 733 317 785 240 774 283 b 826 482 799 351 826 406 b 542 700 826 615 743 686 l 394 710 b 303 772 332 715 303 733 b 438 839 303 821 347 839 b 588 768 522 839 569 824 l 785 768 b 446 1014 779 964 626 1014 b 90 779 214 1014 90 932 b 143 657 90 732 103 690 b 50 492 76 622 50 567 b 333 274 50 358 132 288 l 482 263 b 574 201 543 258 574 240 b 439 135 574 153 528 135 b 288 206 353 135 306 150 l 92 206 b 429 -42 97 10 249 -42 z m 499 414 l 354 424 b 264 493 292 428 264 451 b 378 560 264 543 304 565 l 521 550 b 611 481 585 546 611 522 b 499 414 611 431 572 408 z "},"©":{"ha":871,"x_min":0,"x_max":0,"o":"m 435 257 b 821 625 669 257 821 419 b 435 993 821 831 669 993 b 50 625 200 993 50 831 b 435 257 50 419 200 257 z m 439 367 b 165 625 267 367 165 483 b 439 883 165 767 267 883 b 700 676 590 883 686 797 l 544 676 b 440 747 531 721 496 747 b 321 625 365 747 321 696 b 440 503 321 556 365 503 b 544 574 496 503 531 529 l 700 574 b 439 367 686 453 590 367 z "},"®":{"ha":871,"x_min":0,"x_max":0,"o":"m 435 257 b 821 625 669 257 821 419 b 435 993 821 831 669 993 b 50 625 200 993 50 831 b 435 257 50 419 200 257 z m 213 383 l 213 864 l 486 864 b 685 686 626 864 685 786 b 599 535 685 622 660 565 l 686 383 l 539 383 l 467 510 l 360 510 l 360 383 z m 360 629 l 464 629 b 539 685 521 629 539 647 b 464 743 539 722 521 743 l 360 743 z "},"™":{"ha":1394,"x_min":0,"x_max":0,"o":"m 285 972 l 140 972 l 140 881 l 42 881 l 42 753 l 140 753 l 140 601 b 322 428 140 496 188 428 l 401 428 l 401 558 l 349 558 b 285 617 304 558 285 572 l 285 753 l 401 753 l 401 881 l 285 881 z m 1128 893 b 949 792 1031 893 976 850 b 786 893 921 857 871 893 b 611 781 686 893 636 843 l 624 825 l 624 881 l 479 881 l 479 432 l 624 432 l 624 643 b 732 758 624 713 663 758 b 826 651 793 758 826 721 l 826 432 l 971 432 l 971 643 b 1078 758 971 713 1008 758 b 1174 651 1140 758 1174 721 l 1174 432 l 1318 432 l 1318 679 b 1128 893 1318 813 1260 893 z "},"°":{"ha":678,"x_min":0,"x_max":0,"o":"m 339 425 b 635 710 525 425 635 556 b 339 993 635 863 525 993 b 43 710 153 993 43 863 b 339 425 43 556 153 425 z m 339 594 b 224 710 265 594 224 646 b 339 824 224 772 265 824 b 454 710 413 824 454 772 b 339 594 454 646 413 594 z "},"|":{"ha":399,"x_min":0,"x_max":0,"o":"m 85 -139 l 315 -139 l 315 1111 l 85 1111 z "},"¦":{"ha":399,"x_min":0,"x_max":0,"o":"m 85 528 l 315 528 l 315 1111 l 85 1111 z m 85 -139 l 315 -139 l 315 444 l 85 444 z "},"†":{"ha":674,"x_min":0,"x_max":0,"o":"m 625 779 l 439 779 l 439 972 l 228 972 l 228 779 l 42 779 l 42 581 l 228 581 l 228 388 l 439 388 l 439 581 l 625 581 z "},"‡":{"ha":674,"x_min":0,"x_max":0,"o":"m 625 581 l 625 779 l 439 779 l 439 972 l 228 972 l 228 779 l 42 779 l 42 581 l 228 581 l 228 392 l 42 392 l 42 193 l 228 193 l 228 0 l 439 0 l 439 193 l 625 193 l 625 392 l 439 392 l 439 581 z "},"№":{"ha":1811,"x_min":0,"x_max":0,"o":"m 1424 351 b 1761 672 1640 351 1761 492 b 1424 993 1761 854 1640 993 b 1086 672 1207 993 1086 854 b 1424 351 1086 490 1207 351 z m 85 0 l 315 0 l 315 601 l 314 725 l 329 725 l 638 0 l 982 0 l 982 972 l 751 972 l 751 371 l 753 247 l 738 247 l 429 972 l 85 972 z m 1424 525 b 1278 672 1331 525 1278 588 b 1424 819 1278 757 1331 819 b 1569 672 1517 819 1569 757 b 1424 525 1569 588 1517 525 z m 1156 0 l 1694 0 l 1694 186 l 1156 186 z "},"̨":{"ha":0,"x_min":0,"x_max":0,"o":"m -161 -247 b -67 -232 -119 -247 -92 -242 l -67 -81 l -87 -82 b -175 -18 -142 -85 -175 -61 b -14 103 -175 28 -139 79 l -160 121 b -357 -89 -247 92 -357 33 b -161 -247 -357 -182 -296 -247 z "},"´":{"ha":354,"x_min":0,"x_max":0,"o":"m 14 815 l 225 815 l 340 1044 l 129 1044 z "},"˘":{"ha":593,"x_min":0,"x_max":0,"o":"m 297 778 b 579 1044 501 778 588 878 l 385 1044 b 297 939 393 972 357 939 b 210 1044 236 939 201 972 l 14 1044 b 297 778 6 878 93 778 z "},"ˇ":{"ha":579,"x_min":0,"x_max":0,"o":"m 358 1044 l 290 908 l 221 1044 l 14 1044 l 129 815 l 450 815 l 565 1044 z "},"¸":{"ha":328,"x_min":0,"x_max":0,"o":"m 178 -54 l 171 -54 l 214 19 l 106 19 l 14 -153 l 147 -153 b 190 -192 174 -153 190 -168 b 147 -235 190 -217 175 -235 b 108 -221 131 -235 119 -231 l 47 -299 b 161 -342 71 -325 111 -342 b 314 -194 254 -342 314 -283 b 178 -54 314 -110 257 -54 z "},"ˆ":{"ha":579,"x_min":0,"x_max":0,"o":"m 565 814 l 450 1043 l 129 1043 l 14 814 l 221 814 l 290 950 l 358 814 z "},"¨":{"ha":671,"x_min":0,"x_max":0,"o":"m 133 828 b 253 939 208 828 253 879 b 133 1049 253 999 208 1049 b 14 939 58 1049 14 999 b 133 828 14 879 58 828 z m 538 828 b 657 939 613 828 657 879 b 538 1049 657 999 613 1049 b 418 939 463 1049 418 999 b 538 828 418 879 463 828 z "},"˙":{"ha":267,"x_min":0,"x_max":0,"o":"m 133 828 b 253 939 208 828 253 879 b 133 1049 253 999 208 1049 b 14 939 58 1049 14 999 b 133 828 14 879 58 828 z "},"`":{"ha":354,"x_min":0,"x_max":0,"o":"m 340 815 l 225 1044 l 14 1044 l 129 815 z "},"˝":{"ha":617,"x_min":0,"x_max":0,"o":"m 14 815 l 225 815 l 340 1044 l 129 1044 z m 276 815 l 488 815 l 603 1044 l 392 1044 z "},"¯":{"ha":585,"x_min":0,"x_max":0,"o":"m 14 847 l 571 847 l 571 1044 l 14 1044 z "},"˚":{"ha":318,"x_min":0,"x_max":0,"o":"m 158 785 b 304 926 250 785 304 849 b 158 1067 304 1003 250 1067 b 14 926 68 1067 14 1003 b 158 785 14 849 68 785 z m 158 883 b 115 926 131 883 115 901 b 158 968 115 950 131 968 b 203 926 188 968 203 950 b 158 883 203 901 188 883 z "},"˜":{"ha":629,"x_min":0,"x_max":0,"o":"m 171 818 b 453 881 294 818 338 881 b 615 832 500 881 561 869 l 615 1001 b 458 1049 567 1035 515 1049 b 176 986 335 1049 294 986 b 14 1035 128 986 68 997 l 14 864 b 171 818 63 832 114 818 z "}}}
